<?xml version="1.0" encoding="UTF-8" standalone="no"?>
<svg
   viewBox="0 0 500 500"
   version="1.1"
   id="svg46"
   sodipodi:docname="chatRobo.svg"
   inkscape:version="1.3.2 (091e20e, 2023-11-25, custom)"
   xmlns:inkscape="http://www.inkscape.org/namespaces/inkscape"
   xmlns:sodipodi="http://sodipodi.sourceforge.net/DTD/sodipodi-0.dtd"
   xmlns="http://www.w3.org/2000/svg"
   xmlns:svg="http://www.w3.org/2000/svg">
  <defs
     id="defs46" />
  <sodipodi:namedview
     id="namedview46"
     pagecolor="#ffffff"
     bordercolor="#000000"
     borderopacity="0.25"
     inkscape:showpageshadow="2"
     inkscape:pageopacity="0.0"
     inkscape:pagecheckerboard="0"
     inkscape:deskcolor="#d1d1d1"
     inkscape:zoom="0.52255191"
     inkscape:cx="-128.21693"
     inkscape:cy="509.99718"
     inkscape:window-width="1920"
     inkscape:window-height="974"
     inkscape:window-x="-11"
     inkscape:window-y="-11"
     inkscape:window-maximized="1"
     inkscape:current-layer="svg46" />
  <g
     id="freepik--Plant--inject-124"
     transform="matrix(1.3419961,0,0,1.3419961,27.607806,-117.44607)">
    <path
       d="m 96.44,411.39 a 10.28,10.28 0 0 1 6.47,4.81 18.34,18.34 0 0 1 2.39,7.87 c 0.51,5.32 -1.34,11.19 -3.64,16 -5.19,-2.9 -7.6,-9.35 -8.62,-12.7 -1.61,-5.29 -1.31,-15.84 3.4,-16"
       style="fill:#455a64"
       id="path2" />
    <path
       d="m 108.56,447.59 a 8.77,8.77 0 0 1 1,-8.75 11.62,11.62 0 0 1 7.86,-4.41 4.94,4.94 0 0 1 4,0.87 3.75,3.75 0 0 1 0.84,3.72 7.65,7.65 0 0 1 -2.18,3.3 c -3.29,3.18 -7.06,5.65 -11.62,5.27"
       style="fill:#455a64"
       id="path3" />
    <path
       d="m 106.32,464.72 a 5.66,5.66 0 0 1 -0.07,-1.1 c 0,-0.78 0,-1.79 -0.08,-3 a 30.59,30.59 0 0 1 1,-9.85 18.82,18.82 0 0 1 5.13,-8.43 12.8,12.8 0 0 1 2.45,-1.77 6.72,6.72 0 0 1 0.73,-0.36 0.75,0.75 0 0 1 0.27,-0.1 20.44,20.44 0 0 0 -3.26,2.43 19.41,19.41 0 0 0 -5,8.34 32.94,32.94 0 0 0 -1.13,9.74 c 0,1.27 0,2.29 0,3 a 7.51,7.51 0 0 1 -0.04,1.1 z"
       style="fill:#263238"
       id="path4" />
    <path
       d="m 96.92,419.45 a 2.53,2.53 0 0 1 0.15,0.45 q 0.15,0.51 0.36,1.32 c 0.31,1.15 0.74,2.82 1.24,4.89 1,4.14 2.34,9.88 3.66,16.24 1.32,6.36 2.38,12.16 3.09,16.36 0.35,2.1 0.62,3.8 0.8,5 0.08,0.56 0.14,1 0.19,1.36 a 2.42,2.42 0 0 1 0,0.48 3.23,3.23 0 0 1 -0.12,-0.47 c -0.07,-0.35 -0.15,-0.79 -0.26,-1.35 -0.23,-1.21 -0.54,-2.9 -0.92,-4.95 -0.78,-4.19 -1.88,-10 -3.2,-16.33 -1.32,-6.33 -2.6,-12.1 -3.54,-16.25 -0.47,-2 -0.85,-3.71 -1.12,-4.92 -0.12,-0.55 -0.22,-1 -0.29,-1.34 a 2.12,2.12 0 0 1 -0.04,-0.49 z"
       style="fill:#263238"
       id="path5" />
    <path
       d="M 101.66,452.36 A 20.57,20.57 0 0 0 87.56,440 c -1.61,-0.39 -3.61,-0.44 -4.59,0.9 -0.98,1.34 -0.29,3.24 0.62,4.63 a 17.56,17.56 0 0 0 18,7.33"
       style="fill:#455a64"
       id="path6" />
    <path
       d="m 89.32,444.73 a 6.16,6.16 0 0 1 1,0.21 11.35,11.35 0 0 1 1.17,0.34 c 0.44,0.16 1,0.3 1.51,0.55 0.51,0.25 1.16,0.49 1.77,0.83 a 18.09,18.09 0 0 1 1.94,1.14 22.29,22.29 0 0 1 3.93,3.32 22.69,22.69 0 0 1 3,4.17 20.41,20.41 0 0 1 1,2 18.24,18.24 0 0 1 0.67,1.84 c 0.2,0.56 0.28,1.1 0.4,1.56 a 10.85,10.85 0 0 1 0.22,1.2 6,6 0 0 1 0.1,1 c -0.09,0 -0.25,-1.46 -1,-3.71 a 18,18 0 0 0 -0.69,-1.79 20.41,20.41 0 0 0 -1,-2 23.22,23.22 0 0 0 -3,-4.08 24.29,24.29 0 0 0 -3.84,-3.29 c -0.66,-0.42 -1.28,-0.83 -1.9,-1.14 a 17.32,17.32 0 0 0 -1.73,-0.86 c -2.13,-0.88 -3.58,-1.21 -3.55,-1.29 z"
       style="fill:#263238"
       id="path7" />
  </g>
  <g
     id="freepik--Character--inject-124"
     transform="matrix(1.3419961,0,0,1.3419961,27.607806,-117.44607)">
    <path
       d="M 106.12,299 64,294.64 46.16,254.15 32.3,257.76 c 0,0 10.24,42.79 21.7,49.42 11.46,6.63 50.61,7.82 50.61,7.82 z"
       style="fill:#ff725e"
       id="path8" />
    <circle
       cx="114.55"
       cy="307.17999"
       r="18.68"
       transform="rotate(-48.37,114.55489,307.18301)"
       style="fill:#263238"
       id="circle8" />
    <path
       d="m 114.55,325.88 a 18.71,18.71 0 1 1 13.23,-5.48 18.59,18.59 0 0 1 -13.23,5.48 z m 0,-37.36 a 18.66,18.66 0 1 0 13.19,5.48 18.54,18.54 0 0 0 -13.19,-5.48 z"
       style="fill:#263238"
       id="path9" />
    <circle
       cx="56.950001"
       cy="296.76001"
       r="14.01"
       transform="rotate(-13.5,56.934047,296.74221)"
       style="fill:#263238"
       id="circle9" />
    <circle
       cx="38.220001"
       cy="249.33"
       r="11.45"
       transform="rotate(-45,38.216033,249.3304)"
       style="fill:#263238"
       id="circle10" />
    <path
       d="M 45.66,241.68 H 58 v 5.27 H 45.66 a 2.45,2.45 0 0 1 -2.45,-2.45 v -0.36 a 2.45,2.45 0 0 1 2.45,-2.46 z"
       transform="rotate(139.82,50.597202,244.3082)"
       style="fill:#263238"
       id="path10" />
    <path
       d="m 36.52,230.85 h 12 a 0.35,0.35 0 0 1 0.35,0.35 v 4.56 a 0.35,0.35 0 0 1 -0.35,0.35 h -12 a 2.45,2.45 0 0 1 -2.45,-2.45 v -0.36 a 2.45,2.45 0 0 1 2.45,-2.45 z"
       transform="rotate(90,41.455,233.485)"
       style="fill:#263238"
       id="path11" />
    <path
       d="m 29.17,231.36 h 12 a 0.35,0.35 0 0 1 0.35,0.35 v 4.56 a 0.35,0.35 0 0 1 -0.35,0.35 h -12 a 2.45,2.45 0 0 1 -2.45,-2.45 v -0.36 a 2.45,2.45 0 0 1 2.45,-2.45 z"
       transform="rotate(77.39,34.110154,233.99072)"
       style="fill:#263238"
       id="path12" />
    <path
       d="m 21.72,234.48 h 12 a 0.35,0.35 0 0 1 0.35,0.35 v 4.56 a 0.35,0.35 0 0 1 -0.35,0.35 h -12 a 2.45,2.45 0 0 1 -2.45,-2.45 v -0.36 a 2.45,2.45 0 0 1 2.45,-2.45 z"
       transform="rotate(60,26.646894,237.11378)"
       style="fill:#263238"
       id="path13" />
    <rect
       x="270.44"
       y="311.97"
       width="13.7"
       height="92.949997"
       transform="rotate(156.96,277.29185,358.44355)"
       style="fill:#ff725e"
       id="rect13" />
    <circle
       cx="252.96001"
       cy="309.12"
       r="18.68"
       transform="rotate(-49.73,252.93055,309.10426)"
       style="fill:#263238"
       id="circle13" />
    <path
       d="m 253,327.84 a 18.72,18.72 0 0 1 -17.9,-24.23 18.7,18.7 0 1 1 17.9,24.23 z m 0,-37.38 a 18.66,18.66 0 1 0 17.85,24.16 v 0 a 18.67,18.67 0 0 0 -12.33,-23.32 18.77,18.77 0 0 0 -5.58,-0.84 z"
       style="fill:#263238"
       id="path14" />
    <circle
       cx="277.29001"
       cy="361.20001"
       r="14.01"
       transform="rotate(-74.47,277.28263,361.19943)"
       style="fill:#263238"
       id="circle14" />
    <circle
       cx="298.41"
       cy="404.79999"
       r="11.45"
       style="fill:#263238"
       id="circle15" />
    <path
       d="m 283.32,410.85 h 12.32 v 5.27 h -12.32 a 2.45,2.45 0 0 1 -2.45,-2.45 v -0.36 a 2.45,2.45 0 0 1 2.45,-2.46 z"
       transform="rotate(-58.64,288.2566,413.48872)"
       style="fill:#263238"
       id="path15" />
    <path
       d="m 295.42,418.22 h 12 a 0.35,0.35 0 0 1 0.35,0.35 v 4.56 a 0.35,0.35 0 0 1 -0.35,0.35 h -12 A 2.45,2.45 0 0 1 293,421 v -0.36 a 2.45,2.45 0 0 1 2.42,-2.42 z"
       transform="rotate(-108.46,300.34277,420.8594)"
       style="fill:#263238"
       id="path16" />
    <path
       d="m 302.23,415.42 h 12 a 0.35,0.35 0 0 1 0.35,0.35 v 4.56 a 0.35,0.35 0 0 1 -0.35,0.35 h -12 a 2.45,2.45 0 0 1 -2.45,-2.45 v -0.36 a 2.45,2.45 0 0 1 2.45,-2.45 z"
       transform="rotate(-121.07,307.1593,418.05479)"
       style="fill:#263238"
       id="path17" />
    <path
       d="m 308.31,410.1 h 12 a 0.35,0.35 0 0 1 0.35,0.35 V 415 a 0.35,0.35 0 0 1 -0.35,0.35 h -12 a 2.45,2.45 0 0 1 -2.45,-2.45 v -0.36 a 2.45,2.45 0 0 1 2.45,-2.44 z"
       transform="rotate(-138.46,313.23581,412.73255)"
       style="fill:#263238"
       id="path18" />
    <path
       d="m 109,287.74 c 0,0 1.35,131.14 74.94,133.7 73.59,2.56 76.68,-132.76 76.68,-133.7 0,0 -8.69,-19.55 -75.81,-18.79 -67.12,0.76 -75.81,18.79 -75.81,18.79 z"
       style="fill:#ff725e"
       id="path19" />
    <rect
       x="142.96001"
       y="248.88"
       width="76.900002"
       height="15.77"
       rx="7.3499999"
       transform="rotate(180,181.415,256.77)"
       style="fill:#263238"
       id="rect19" />
    <rect
       x="178.74001"
       y="120.89"
       width="5.3699999"
       height="27.15"
       transform="rotate(180,181.425,134.47)"
       style="fill:#263238"
       id="rect20" />
    <circle
       cx="259.89999"
       cy="213.5"
       r="15.78"
       transform="rotate(-13.37,259.99778,213.57469)"
       style="fill:#ff725e"
       id="circle20" />
    <circle
       cx="100.6"
       cy="212.46001"
       r="15.78"
       transform="rotate(-12.78,100.61175,212.48089)"
       style="fill:#ff725e"
       id="circle21" />
    <path
       d="m 178.3,142.16 c 0,0 -64.16,-0.77 -74.3,54.84 -10.14,55.61 44.1,56.61 59.71,57.66 7.07,0.48 22.21,0.53 35.57,0.29 29.58,-0.51 50.48,-6.23 57.59,-33.67 a 51.42,51.42 0 0 0 1.59,-9.83 C 260.33,181.33 240,140.68 178.3,142.16 Z"
       style="fill:#ff725e"
       id="path21" />
    <path
       d="m 224.84,226.8 -93.21,1.45 a 17.69,17.69 0 0 1 -18,-17.41 v 0 a 17.7,17.7 0 0 1 17.42,-18 l 93.21,-1.45 a 17.68,17.68 0 0 1 18,17.41 v 0 a 17.69,17.69 0 0 1 -17.42,18 z"
       style="fill:#263238"
       id="path22" />
    <path
       d="m 151,208.91 a 5.68,5.68 0 1 1 -4.48,-6.67 5.68,5.68 0 0 1 4.48,6.67 z"
       style="fill:#ffffff"
       id="path23" />
    <path
       d="m 216.09,207.87 a 5.68,5.68 0 1 1 -4.48,-6.66 5.68,5.68 0 0 1 4.48,6.66 z"
       style="fill:#ffffff"
       id="path24" />
    <path
       d="m 206.72,339.82 a 25.37,25.37 0 1 1 -23.46,-27.15 25.38,25.38 0 0 1 23.46,27.15 z"
       style="fill:#263238"
       id="path25" />
    <path
       d="m 199.85,339.32 a 18.49,18.49 0 1 1 -17.09,-19.79 18.48,18.48 0 0 1 17.09,19.79 z"
       style="fill:#ffffff"
       id="path26" />
    <path
       d="m 190.94,342.68 a 18.38,18.38 0 0 1 -0.17,-3.05 c -0.05,-1.91 -0.09,-4.64 -0.09,-8 l 0.2,0.37 -9.51,-5.55 h 0.53 l -9.6,5.39 c -0.26,0.44 0.35,-0.59 0.29,-0.48 v 0 1.42 1.43 c 0,0.94 0,1.88 -0.05,2.8 0,1.84 -0.07,3.62 -0.1,5.34 l -0.26,-0.46 9.4,5.74 h -0.42 c 2.93,-1.58 5.35,-2.84 7,-3.7 a 19.44,19.44 0 0 1 2.77,-1.3 14.62,14.62 0 0 1 -2.4,1.59 c -1.62,1 -4,2.41 -7,4.14 l -0.21,0.12 -0.21,-0.12 -9.52,-5.55 -0.26,-0.15 v -0.32 q 0,-2.58 0.06,-5.34 c 0,-0.92 0,-1.85 0,-2.8 v -1.42 -1.38 0 c -0.06,0.11 0.55,-0.91 0.29,-0.48 l 9.63,-5.34 0.28,-0.15 0.26,0.16 9.39,5.74 0.21,0.13 v 0.24 c -0.11,3.46 -0.22,6.24 -0.32,8.13 a 15.32,15.32 0 0 1 -0.19,2.85 z"
       style="fill:#ff725e"
       id="path27" />
    <circle
       cx="181.42999"
       cy="120.35"
       r="8.8500004"
       transform="rotate(-45,181.43024,120.34913)"
       style="fill:#ff725e"
       id="circle27" />
    <path
       d="m 167.29,206.29 c 0.42,0.05 0.21,2 1.45,4.67 a 11.79,11.79 0 0 0 3,4 9.77,9.77 0 0 0 5.33,2.37 9.9,9.9 0 0 0 5.68,-1.36 11.84,11.84 0 0 0 3.68,-3.35 c 1.7,-2.37 1.85,-4.36 2.27,-4.33 0.17,0 0.34,0.5 0.34,1.44 a 8.84,8.84 0 0 1 -1,3.84 11.8,11.8 0 0 1 -4,4.43 10.77,10.77 0 0 1 -13.9,-1.27 11.73,11.73 0 0 1 -3.12,-5.08 8.7,8.7 0 0 1 -0.32,-4 c 0.17,-0.93 0.43,-1.39 0.59,-1.36 z"
       style="fill:#ffffff"
       id="path28" />
    <path
       d="m 252.72,232.2 c -0.1,0 1.05,-1.8 2.16,-4.95 a 53.6,53.6 0 0 0 2.6,-12.74 93.84,93.84 0 0 0 0.3,-13 c -0.07,-1.67 -0.15,-3 -0.23,-4 a 7,7 0 0 1 -0.05,-1.46 7.82,7.82 0 0 1 0.25,1.44 c 0.14,0.93 0.28,2.28 0.4,4 a 79.05,79.05 0 0 1 -0.15,13.12 49.61,49.61 0 0 1 -2.77,12.82 25.28,25.28 0 0 1 -1.7,3.61 8.25,8.25 0 0 1 -0.81,1.16 z"
       style="fill:#263238"
       id="path29" />
    <path
       d="m 104.12,195.14 a 7.52,7.52 0 0 1 -0.31,1.43 c -0.13,0.45 -0.27,1 -0.4,1.66 -0.13,0.66 -0.33,1.38 -0.45,2.21 a 48.61,48.61 0 0 0 -0.7,5.83 51.27,51.27 0 0 0 0.1,7.18 52.07,52.07 0 0 0 1.16,7.08 48.47,48.47 0 0 0 1.72,5.62 c 0.27,0.79 0.58,1.48 0.83,2.1 0.25,0.62 0.49,1.14 0.69,1.56 a 7.9,7.9 0 0 1 0.56,1.35 8,8 0 0 1 -0.74,-1.26 16.87,16.87 0 0 1 -0.77,-1.54 c -0.28,-0.6 -0.62,-1.29 -0.91,-2.08 a 42.85,42.85 0 0 1 -1.84,-5.63 48.46,48.46 0 0 1 -1.22,-7.16 47.73,47.73 0 0 1 -0.06,-7.25 43.47,43.47 0 0 1 0.82,-5.87 c 0.15,-0.83 0.36,-1.56 0.53,-2.21 0.17,-0.65 0.33,-1.2 0.48,-1.65 a 9,9 0 0 1 0.51,-1.37 z"
       style="fill:#263238"
       id="path30" />
    <path
       d="m 108.66,287.63 0.38,0.11 1.12,0.38 4.26,1.5 3.08,1.1 c 1.13,0.38 2.38,0.74 3.71,1.15 2.67,0.79 5.68,1.82 9.1,2.62 l 5.33,1.37 c 1.86,0.47 3.82,0.82 5.84,1.26 4,0.92 8.39,1.55 13,2.29 a 232.19,232.19 0 0 0 30.08,2.15 230.43,230.43 0 0 0 30.08,-2.15 c 4.58,-0.74 8.94,-1.36 13,-2.29 2,-0.43 4,-0.78 5.84,-1.25 l 5.34,-1.37 c 3.41,-0.8 6.42,-1.83 9.09,-2.62 1.33,-0.41 2.58,-0.77 3.71,-1.15 l 3.08,-1.1 4.26,-1.5 1.12,-0.38 a 2,2 0 0 1 0.39,-0.11 l -0.37,0.16 -1.1,0.43 -4.23,1.59 -3.15,1.18 c -1.12,0.39 -2.37,0.76 -3.7,1.19 -2.67,0.82 -5.67,1.87 -9.09,2.7 l -5.34,1.4 c -1.85,0.48 -3.82,0.84 -5.84,1.29 -4,0.94 -8.4,1.58 -13,2.34 a 226.13,226.13 0 0 1 -30.15,2.19 227.33,227.33 0 0 1 -30.14,-2.2 c -4.59,-0.75 -9,-1.4 -13,-2.34 -2,-0.45 -4,-0.81 -5.84,-1.29 l -5.34,-1.4 c -3.42,-0.83 -6.42,-1.88 -9.09,-2.7 -1.33,-0.43 -2.57,-0.8 -3.7,-1.19 l -3.07,-1.15 -4.23,-1.59 -1.1,-0.43 a 2,2 0 0 1 -0.33,-0.19 z"
       style="fill:#263238"
       id="path31" />
    <g
       style="opacity:0.3"
       id="g32">
      <path
         d="m 109,287.74 c 0,0 8.69,-18 75.81,-18.79 67.12,-0.79 75.81,18.79 75.81,18.79 0,0 -67.74,33.39 -151.62,0 z"
         id="path32" />
    </g>
    <path
       d="m 170.17,146.32 a 1.22,1.22 0 0 1 -0.23,0 l -0.67,0.07 c -0.6,0.06 -1.48,0.08 -2.61,0.21 a 71.11,71.11 0 0 0 -9.47,1.57 67.92,67.92 0 0 0 -40,26.58 70.21,70.21 0 0 0 -10.44,21.3 c -0.35,1.08 -0.54,1.94 -0.71,2.51 l -0.19,0.66 a 1,1 0 0 1 -0.08,0.22 0.67,0.67 0 0 1 0,-0.23 c 0,-0.18 0.08,-0.4 0.14,-0.67 0.14,-0.58 0.29,-1.45 0.61,-2.55 a 63.44,63.44 0 0 1 3.2,-9.09 68.36,68.36 0 0 1 19,-25.25 68.37,68.37 0 0 1 28.39,-13.84 63,63 0 0 1 9.53,-1.41 c 1.14,-0.1 2,-0.09 2.62,-0.12 h 0.68 c 0.16,0.02 0.23,0.03 0.23,0.04 z"
       style="fill:#ffffff"
       id="path33" />
    <path
       d="m 107.4,223.3 a 7.71,7.71 0 0 1 -0.92,-2 28.53,28.53 0 0 1 -1.63,-10.42 7,7 0 0 1 0.26,-2.18 c 0.16,0 -0.06,3.34 0.58,7.38 0.64,4.04 1.86,7.16 1.71,7.22 z"
       style="fill:#ffffff"
       id="path34" />
    <path
       d="m 90.57,218.13 c 0,0 -0.23,-0.16 -0.54,-0.54 a 9.17,9.17 0 0 1 -1.13,-1.75 11.38,11.38 0 0 1 1.71,-12.9 8.87,8.87 0 0 1 1.55,-1.4 2.16,2.16 0 0 1 0.66,-0.38 c 0.06,0.08 -0.84,0.69 -1.93,2 a 11.8,11.8 0 0 0 -1.66,12.5 c 0.7,1.59 1.41,2.41 1.34,2.47 z"
       style="fill:#ffffff"
       id="path35" />
    <path
       d="m 182,114.18 a 13.32,13.32 0 0 0 -2.35,-0.05 6.13,6.13 0 0 0 -5.24,8.16 13.12,13.12 0 0 0 1,2.11 c 0,0 -0.2,-0.12 -0.48,-0.44 a 5.4,5.4 0 0 1 -0.9,-1.55 6.28,6.28 0 0 1 5.56,-8.65 5.46,5.46 0 0 1 1.78,0.17 c 0.45,0.07 0.63,0.22 0.63,0.25 z"
       style="fill:#ffffff"
       id="path36" />
    <path
       d="m 269.16,206 c -0.11,0.12 -1.66,-1.37 -4,-2.49 -2.34,-1.12 -4.47,-1.45 -4.45,-1.61 a 9.2,9.2 0 0 1 4.67,1.14 9.06,9.06 0 0 1 3.78,2.96 z"
       style="fill:#ffffff"
       id="path37" />
    <path
       d="m 132,381.07 a 1.25,1.25 0 0 1 -0.12,-0.19 l -0.33,-0.59 c -0.3,-0.57 -0.7,-1.33 -1.22,-2.3 -0.26,-0.5 -0.54,-1.06 -0.86,-1.66 l -0.94,-2 c -0.68,-1.45 -1.44,-3.1 -2.19,-5 -0.38,-0.93 -0.78,-1.91 -1.2,-2.92 -0.42,-1.01 -0.78,-2.11 -1.19,-3.22 -0.86,-2.21 -1.59,-4.64 -2.44,-7.16 -1.57,-5.1 -3.11,-10.75 -4.46,-16.75 -1.35,-6 -2.33,-11.79 -3.13,-17.06 -0.8,-5.27 -1.32,-10 -1.64,-14.06 -0.19,-2 -0.31,-3.82 -0.41,-5.42 -0.1,-1.6 -0.19,-3 -0.22,-4.1 -0.03,-1.1 -0.06,-1.95 -0.09,-2.59 v -0.67 a 0.82,0.82 0 0 1 0,-0.23 0.77,0.77 0 0 1 0,0.23 l 0.06,0.67 c 0,0.63 0.11,1.5 0.18,2.58 0.07,1.08 0.17,2.5 0.31,4.09 0.14,1.59 0.27,3.41 0.49,5.41 0.36,4 1,8.76 1.75,14 0.75,5.24 1.84,11 3.16,17 1.32,6 2.87,11.64 4.4,16.73 0.85,2.52 1.56,4.94 2.4,7.15 0.4,1.12 0.78,2.19 1.16,3.22 l 1.16,2.94 c 0.72,1.87 1.46,3.53 2.12,5 l 0.9,2 c 0.29,0.61 0.57,1.17 0.82,1.68 l 1.12,2.34 0.28,0.61 a 0.77,0.77 0 0 1 0.13,0.27 z"
       style="fill:#ffffff"
       id="path38" />
    <path
       d="m 92.87,299.54 a 49.89,49.89 0 0 1 -7.31,-0.26 51.9,51.9 0 0 1 -7.27,-0.77 49.89,49.89 0 0 1 7.31,0.26 51.65,51.65 0 0 1 7.27,0.77 z"
       style="fill:#ffffff"
       id="path39" />
    <path
       d="m 55.25,278.19 a 54.11,54.11 0 0 1 -3.81,-6.47 54,54 0 0 1 -3.34,-6.72 54.59,54.59 0 0 1 3.8,6.48 52.8,52.8 0 0 1 3.35,6.71 z"
       style="fill:#ffffff"
       id="path40" />
    <path
       d="m 167.5,412.6 a 5.86,5.86 0 0 1 -1.17,-0.14 26,26 0 0 1 -3.13,-0.76 33.86,33.86 0 0 1 -4.46,-1.71 38,38 0 0 1 -5.06,-2.94 37,37 0 0 1 -4.48,-3.77 32.7,32.7 0 0 1 -3.12,-3.62 23.39,23.39 0 0 1 -1.77,-2.69 5.19,5.19 0 0 1 -0.53,-1.05 c 0.08,-0.05 0.92,1.4 2.59,3.52 a 37.29,37.29 0 0 0 3.17,3.5 36.59,36.59 0 0 0 9.41,6.62 39,39 0 0 0 4.36,1.79 c 2.56,0.86 4.21,1.15 4.19,1.25 z"
       style="fill:#ffffff"
       id="path41" />
    <path
       d="m 182.84,366.34 a 4.85,4.85 0 0 1 -0.7,0.07 18.35,18.35 0 0 1 -2,0.06 26.82,26.82 0 0 1 -7.33,-1.19 32.23,32.23 0 0 1 -4.78,-1.92 31.09,31.09 0 0 1 -5,-3.21 26.88,26.88 0 0 1 -10.38,-23.9 30.88,30.88 0 0 1 1.05,-5.82 30.24,30.24 0 0 1 1.85,-4.8 26.61,26.61 0 0 1 4.14,-6.17 17.79,17.79 0 0 1 1.42,-1.44 4.92,4.92 0 0 1 0.53,-0.46 c 0,0 -0.66,0.71 -1.8,2 a 28.08,28.08 0 0 0 -4,6.2 28.95,28.95 0 0 0 -2.76,10.49 26.69,26.69 0 0 0 10.2,23.49 30.54,30.54 0 0 0 4.86,3.2 31,31 0 0 0 4.69,2 28,28 0 0 0 7.23,1.33 c 1.81,0.07 2.78,0.01 2.78,0.07 z"
       style="fill:#ffffff"
       id="path42" />
    <path
       d="m 61.77,287.59 c 0,0.08 -0.77,-0.29 -2,-0.58 a 11.16,11.16 0 0 0 -9.46,2.27 c -1,0.83 -1.48,1.49 -1.55,1.44 A 4.62,4.62 0 0 1 50,289 a 10.35,10.35 0 0 1 9.79,-2.34 4.8,4.8 0 0 1 1.98,0.93 z"
       style="fill:#ffffff"
       id="path43" />
    <path
       d="m 209.44,188.16 c 0,0.14 -12.28,0.26 -27.42,0.26 -15.14,0 -27.43,-0.12 -27.43,-0.26 0,-0.14 12.28,-0.26 27.43,-0.26 15.15,0 27.42,0.1 27.42,0.26 z"
       style="fill:#ffffff"
       id="path44" />
    <path
       d="m 162.64,250.69 a 1.88,1.88 0 0 1 -0.46,0.07 l -1.34,0.12 c -0.58,0.05 -1.29,0.09 -2.12,0.11 -0.83,0.02 -1.77,0.06 -2.81,0 -2.09,0 -4.57,-0.15 -7.32,-0.44 a 81.16,81.16 0 0 1 -8.85,-1.53 80.12,80.12 0 0 1 -8.6,-2.58 71.11,71.11 0 0 1 -6.74,-2.87 c -1,-0.44 -1.77,-0.9 -2.5,-1.29 -0.73,-0.39 -1.35,-0.74 -1.85,-1 l -1.15,-0.7 a 2.09,2.09 0 0 1 -0.38,-0.27 c 0,0 0.16,0 0.43,0.18 l 1.2,0.61 c 0.51,0.28 1.14,0.61 1.88,1 0.74,0.39 1.58,0.79 2.53,1.21 1.88,0.88 4.17,1.82 6.75,2.75 a 78.88,78.88 0 0 0 17.34,4.08 c 2.72,0.32 5.19,0.5 7.26,0.55 1,0.06 2,0 2.81,0 0.81,0 1.53,0 2.11,0 h 1.34 a 1.43,1.43 0 0 1 0.47,0 z"
       style="fill:#ffffff"
       id="path45" />
    <path
       d="m 242.47,295.75 a 0.86,0.86 0 0 1 -0.24,0.11 l -0.72,0.27 -2.78,1 c -1.21,0.44 -2.69,0.95 -4.44,1.46 -1.75,0.51 -3.72,1.17 -5.95,1.73 l -3.48,0.92 c -1.21,0.31 -2.49,0.57 -3.8,0.88 -2.62,0.63 -5.46,1.13 -8.44,1.7 a 177.48,177.48 0 0 1 -39.33,2.41 c -3,-0.19 -5.91,-0.34 -8.59,-0.65 -1.34,-0.14 -2.64,-0.24 -3.88,-0.41 l -3.57,-0.49 c -2.28,-0.27 -4.32,-0.68 -6.11,-1 -1.79,-0.32 -3.34,-0.62 -4.59,-0.91 l -2.88,-0.64 -0.75,-0.18 a 0.9,0.9 0 0 1 -0.25,-0.08 1.62,1.62 0 0 1 0.27,0 l 0.75,0.13 2.9,0.55 c 1.26,0.25 2.8,0.54 4.6,0.81 1.8,0.27 3.83,0.66 6.11,0.91 l 3.56,0.45 c 1.24,0.16 2.54,0.25 3.88,0.38 2.67,0.29 5.55,0.42 8.57,0.6 6.05,0.25 12.7,0.26 19.68,-0.15 6.98,-0.41 13.57,-1.28 19.54,-2.26 3,-0.55 5.82,-1 8.44,-1.64 1.31,-0.3 2.59,-0.55 3.8,-0.85 l 3.48,-0.89 c 2.23,-0.53 4.2,-1.15 5.95,-1.65 1.75,-0.5 3.25,-1 4.46,-1.37 l 2.81,-0.9 0.74,-0.22 z"
       style="fill:#ffffff"
       id="path46" />
  </g>
</svg>
