<svg version="1.1" id="Layer_1" xmlns="http://www.w3.org/2000/svg" xmlns:xlink="http://www.w3.org/1999/xlink" x="0px" y="0px"
	 width="100%" viewBox="0 0 1207 785" enable-background="new 0 0 1207 785" xml:space="preserve">
<path fill="#000000" opacity="1.000000" stroke="none" 
	d="
M745.000000,786.000000 
	C496.697754,786.000000 248.895493,786.000000 1.046621,786.000000 
	C1.046621,524.397217 1.046621,262.794464 1.046621,1.095843 
	C403.218964,1.095843 805.437988,1.095843 1207.828491,1.095843 
	C1207.828491,262.666565 1207.828491,524.333252 1207.828491,786.000000 
	C1053.794312,786.000000 899.647156,786.000000 745.000000,786.000000 
M428.881134,471.184174 
	C430.780457,472.746307 433.333374,473.944397 434.447205,475.944031 
	C437.006775,480.539368 439.307953,485.380676 440.937500,490.375458 
	C451.957672,524.152832 455.347198,559.274536 459.174530,594.334656 
	C459.501251,597.327759 461.687561,601.113403 464.175537,602.680908 
	C470.619934,606.741089 477.540955,601.785278 478.015991,593.473450 
	C478.479950,585.354919 477.926575,576.952576 479.868988,569.187378 
	C485.225494,547.773438 491.455444,526.568665 497.749847,505.403076 
	C500.519165,496.091156 504.282349,487.074768 507.594269,477.924225 
	C510.920227,482.562042 513.064331,487.000214 514.981384,491.534393 
	C524.049927,512.982910 534.993347,533.459351 551.611389,549.934814 
	C571.246155,569.401062 592.819092,571.347229 614.320374,555.035156 
	C619.328369,551.235840 623.871887,546.726746 628.187683,542.129761 
	C644.993164,524.229248 656.508545,503.445343 659.480530,478.869324 
	C661.664124,460.812134 661.969727,442.617065 653.980957,424.853699 
	C659.987061,424.312927 665.338074,423.831116 671.273865,423.296661 
	C672.522278,438.753448 680.904175,449.560272 692.684631,458.040405 
	C705.927673,467.573334 720.049011,472.857483 737.040222,469.584076 
	C752.360596,466.632599 764.681641,458.610291 776.782288,449.781708 
	C778.957153,448.194977 780.465271,447.780396 782.979187,448.853241 
	C794.428345,453.739227 805.983337,458.376617 817.484253,463.142212 
	C818.744019,463.664276 819.900513,464.435699 821.551758,465.334717 
	C813.243774,471.193420 805.557922,476.739716 797.746216,482.102631 
	C721.628662,534.358521 643.864807,584.186157 569.170776,638.555847 
	C527.708496,668.736145 485.464111,697.809570 448.200073,733.282288 
	C445.067291,736.264587 442.377258,740.182739 440.753754,744.182556 
	C437.280151,752.740479 441.751984,760.389771 450.897125,762.004333 
	C455.781830,762.866577 460.829956,763.149170 465.801025,763.120422 
	C500.334290,762.921082 534.602783,759.624451 568.506958,753.138977 
	C592.504639,748.548462 616.837952,744.838440 640.196899,737.942383 
	C719.358032,714.572510 798.238892,690.238281 877.054810,665.719482 
	C925.555420,650.631409 974.038757,635.385559 1021.992676,618.669373 
	C1076.742920,599.584106 1129.392578,575.307922 1181.518799,549.965576 
	C1188.405273,546.617615 1191.015381,541.449646 1188.530640,536.167358 
	C1186.013672,530.816406 1180.455322,529.508301 1173.540161,532.766602 
	C1160.924072,538.710938 1148.322754,544.687195 1135.742310,550.706604 
	C1060.801147,586.563904 982.693176,613.968445 903.308167,638.008606 
	C832.101929,659.571960 760.952515,681.322632 689.786499,703.018433 
	C670.251404,708.973938 650.997314,716.073853 631.177612,720.828369 
	C585.057007,731.892090 538.507080,740.882080 491.000397,743.578369 
	C482.495483,744.061035 473.939667,743.646912 464.258545,743.646912 
	C482.141907,728.536621 498.480316,712.976990 516.554871,699.798523 
	C565.093567,664.408264 614.077576,629.607361 663.455261,595.395874 
	C702.688599,568.212891 742.848755,542.370972 782.429626,515.684692 
	C802.010620,502.482758 821.213074,488.719421 840.148743,475.515533 
	C875.701477,493.610779 910.813599,512.141235 946.538513,529.403625 
	C966.209534,538.908691 986.902527,546.301575 1007.160950,554.582886 
	C1008.989258,555.330261 1011.019775,555.571594 1012.938782,556.110779 
	C1018.054443,557.548157 1023.046875,557.657227 1026.616333,553.079773 
	C1030.068115,548.653198 1029.136597,543.608276 1027.204834,538.839111 
	C1023.410156,529.471313 1019.580322,520.112366 1015.500488,510.866455 
	C1001.832825,479.892059 988.066223,448.961212 974.299438,418.030609 
	C969.461121,407.160095 964.512695,396.338593 959.580322,385.419159 
	C984.738525,364.239655 1007.166199,340.736877 1028.729126,316.458435 
	C1042.809448,300.604767 1057.793823,285.380615 1066.906128,265.581390 
	C1076.011597,245.797211 1085.390015,226.226990 1090.131470,204.773697 
	C1097.484741,171.504272 1086.446289,147.573853 1060.753784,129.848190 
	C1043.365234,117.851524 1023.103638,114.233788 1002.679871,112.269455 
	C968.364075,108.969025 934.184631,112.514099 900.032349,115.645508 
	C895.893555,116.024994 891.762207,116.486412 887.627441,116.909859 
	C887.410095,116.519852 887.192810,116.129845 886.975464,115.739838 
	C888.397644,114.610321 889.951965,113.611748 891.220947,112.330544 
	C901.674133,101.777130 910.249084,90.038147 913.467529,75.188606 
	C915.789307,64.476143 914.952881,54.605091 906.739075,45.983025 
	C897.109863,35.875111 886.597656,27.684885 872.547302,24.877138 
	C868.159546,24.000311 863.935181,22.275026 859.537781,21.483387 
	C845.818970,19.013664 831.993164,14.652870 818.320618,15.034195 
	C800.841553,15.521685 783.321289,19.191946 766.083679,22.767517 
	C722.881287,31.728951 681.221497,46.080452 639.670227,60.638054 
	C627.166748,65.018707 614.394470,69.335327 602.914978,75.768410 
	C586.267029,85.097832 570.488403,96.039688 554.686890,106.804428 
	C528.695557,124.510986 502.071777,141.670456 484.036621,168.417694 
	C478.715149,176.309814 473.015625,177.759216 463.515686,176.490280 
	C413.844666,169.855545 363.893555,169.738358 314.032654,174.011871 
	C266.240753,178.108063 218.916885,185.625351 172.294724,197.130569 
	C143.275223,204.291885 114.187675,211.157410 86.510986,222.912170 
	C59.043381,234.578125 36.683674,252.041229 21.294226,277.899200 
	C13.550056,290.911255 12.699024,303.911743 20.150429,317.591003 
	C32.802303,340.817261 52.656223,355.663086 76.185799,365.842560 
	C113.512901,381.991272 152.787460,390.996826 193.060852,396.079559 
	C216.330017,399.016296 239.555954,402.328949 262.751373,405.805878 
	C279.361816,408.295715 295.811523,411.990143 312.472260,413.981720 
	C337.254669,416.944122 362.178680,418.699188 387.009094,421.287445 
	C432.241577,426.002441 477.603912,428.727570 523.056213,428.675476 
	C558.497070,428.634857 593.937012,427.101807 629.374634,426.131226 
	C632.717957,426.039673 634.637573,426.688782 636.037720,430.226990 
	C640.721802,442.063904 642.099304,454.194427 641.568420,466.850708 
	C640.285034,497.444366 625.781555,521.037720 602.861511,539.851929 
	C590.459106,550.032593 579.272034,550.603882 564.899658,536.361572 
	C552.761475,524.333313 544.265564,509.577301 536.930359,494.156799 
	C531.086365,481.871155 525.139832,469.611267 518.619812,457.678192 
	C514.244324,449.670135 506.568481,449.010956 499.866089,455.329742 
	C498.320465,456.786926 496.718842,458.484283 495.929047,460.395905 
	C489.859375,475.086578 483.748932,489.768829 478.143219,504.639191 
	C475.176849,512.508118 473.193298,520.747437 470.766052,528.819519 
	C469.233032,525.794983 468.603455,522.894653 468.023132,519.984558 
	C464.606018,502.848816 460.820129,485.794525 453.150787,469.956421 
	C446.535675,456.295441 433.621796,449.533447 420.568420,453.136902 
	C415.219757,454.613403 409.900299,457.022217 405.253418,460.057098 
	C392.085297,468.657166 380.569214,479.142090 370.569702,491.407166 
	C363.157043,500.499359 354.899353,508.902679 346.689453,517.976013 
	C336.835297,483.626556 326.150574,469.261658 313.653168,455.833282 
	C302.204651,443.531830 289.415680,432.434875 271.864166,430.501556 
	C260.875580,429.291168 249.545715,429.007751 238.577332,430.209686 
	C210.443466,433.292664 184.095764,441.167236 164.198395,463.194885 
	C162.974197,464.550171 161.560974,465.737396 160.211563,466.976501 
	C138.922195,486.525574 123.427216,509.758820 115.652855,537.772278 
	C114.150627,543.185242 114.362282,549.120972 112.553726,554.393799 
	C103.983284,579.381104 99.011353,605.129944 95.503311,631.210205 
	C92.217552,655.637939 88.943298,680.063660 92.969536,704.774536 
	C95.065727,717.639893 97.725906,730.238831 104.597801,741.592590 
	C113.209404,755.820679 128.016251,761.132690 142.821884,751.528992 
	C150.995392,746.227295 157.409119,739.183899 161.850250,730.743774 
	C178.303421,699.475525 197.199570,669.404785 208.888550,635.768250 
	C210.721512,630.493652 218.314102,629.038574 222.179810,633.065430 
	C232.161804,643.463501 243.091309,652.380615 256.503754,658.296997 
	C271.499023,664.911743 285.183472,662.731445 297.804688,653.344177 
	C312.195465,642.640808 322.905670,628.720764 330.781891,612.612061 
	C341.635376,590.414062 352.050446,568.116638 350.115570,542.370300 
	C350.018677,541.080933 351.286957,539.453613 352.314056,538.351074 
	C364.222748,525.567688 375.886749,512.531982 388.278809,500.231201 
	C397.325653,491.251038 407.150238,483.006195 417.080963,474.994843 
	C419.953003,472.677856 424.390808,472.301819 428.881134,471.184174 
z"/>
<path fill="#FCFCFC" opacity="1.000000" stroke="none" 
	d="
M428.495972,471.110046 
	C424.390808,472.301819 419.953003,472.677856 417.080963,474.994843 
	C407.150238,483.006195 397.325653,491.251038 388.278809,500.231201 
	C375.886749,512.531982 364.222748,525.567688 352.314056,538.351074 
	C351.286957,539.453613 350.018677,541.080933 350.115570,542.370300 
	C352.050446,568.116638 341.635376,590.414062 330.781891,612.612061 
	C322.905670,628.720764 312.195465,642.640808 297.804688,653.344177 
	C285.183472,662.731445 271.499023,664.911743 256.503754,658.296997 
	C243.091309,652.380615 232.161804,643.463501 222.179810,633.065430 
	C218.314102,629.038574 210.721512,630.493652 208.888550,635.768250 
	C197.199570,669.404785 178.303421,699.475525 161.850250,730.743774 
	C157.409119,739.183899 150.995392,746.227295 142.821884,751.528992 
	C128.016251,761.132690 113.209404,755.820679 104.597801,741.592590 
	C97.725906,730.238831 95.065727,717.639893 92.969536,704.774536 
	C88.943298,680.063660 92.217552,655.637939 95.503311,631.210205 
	C99.011353,605.129944 103.983284,579.381104 112.553726,554.393799 
	C114.362282,549.120972 114.150627,543.185242 115.652855,537.772278 
	C123.427216,509.758820 138.922195,486.525574 160.211563,466.976501 
	C161.560974,465.737396 162.974197,464.550171 164.198395,463.194885 
	C184.095764,441.167236 210.443466,433.292664 238.577332,430.209686 
	C249.545715,429.007751 260.875580,429.291168 271.864166,430.501556 
	C289.415680,432.434875 302.204651,443.531830 313.653168,455.833282 
	C326.150574,469.261658 336.835297,483.626556 346.689453,517.976013 
	C354.899353,508.902679 363.157043,500.499359 370.569702,491.407166 
	C380.569214,479.142090 392.085297,468.657166 405.253418,460.057098 
	C409.900299,457.022217 415.219757,454.613403 420.568420,453.136902 
	C433.621796,449.533447 446.535675,456.295441 453.150787,469.956421 
	C460.820129,485.794525 464.606018,502.848816 468.023132,519.984558 
	C468.603455,522.894653 469.233032,525.794983 470.766052,528.819519 
	C473.193298,520.747437 475.176849,512.508118 478.143219,504.639191 
	C483.748932,489.768829 489.859375,475.086578 495.929047,460.395905 
	C496.718842,458.484283 498.320465,456.786926 499.866089,455.329742 
	C506.568481,449.010956 514.244324,449.670135 518.619812,457.678192 
	C525.139832,469.611267 531.086365,481.871155 536.930359,494.156799 
	C544.265564,509.577301 552.761475,524.333313 564.899658,536.361572 
	C579.272034,550.603882 590.459106,550.032593 602.861511,539.851929 
	C625.781555,521.037720 640.285034,497.444366 641.568420,466.850708 
	C642.099304,454.194427 640.721802,442.063904 636.037720,430.226990 
	C634.637573,426.688782 632.717957,426.039673 629.374634,426.131226 
	C593.937012,427.101807 558.497070,428.634857 523.056213,428.675476 
	C477.603912,428.727570 432.241577,426.002441 387.009094,421.287445 
	C362.178680,418.699188 337.254669,416.944122 312.472260,413.981720 
	C295.811523,411.990143 279.361816,408.295715 262.751373,405.805878 
	C239.555954,402.328949 216.330017,399.016296 193.060852,396.079559 
	C152.787460,390.996826 113.512901,381.991272 76.185799,365.842560 
	C52.656223,355.663086 32.802303,340.817261 20.150429,317.591003 
	C12.699024,303.911743 13.550056,290.911255 21.294226,277.899200 
	C36.683674,252.041229 59.043381,234.578125 86.510986,222.912170 
	C114.187675,211.157410 143.275223,204.291885 172.294724,197.130569 
	C218.916885,185.625351 266.240753,178.108063 314.032654,174.011871 
	C363.893555,169.738358 413.844666,169.855545 463.515686,176.490280 
	C473.015625,177.759216 478.715149,176.309814 484.036621,168.417694 
	C502.071777,141.670456 528.695557,124.510986 554.686890,106.804428 
	C570.488403,96.039688 586.267029,85.097832 602.914978,75.768410 
	C614.394470,69.335327 627.166748,65.018707 639.670227,60.638054 
	C681.221497,46.080452 722.881287,31.728951 766.083679,22.767517 
	C783.321289,19.191946 800.841553,15.521685 818.320618,15.034195 
	C831.993164,14.652870 845.818970,19.013664 859.537781,21.483387 
	C863.935181,22.275026 868.159546,24.000311 872.547302,24.877138 
	C886.597656,27.684885 897.109863,35.875111 906.739075,45.983025 
	C914.952881,54.605091 915.789307,64.476143 913.467529,75.188606 
	C910.249084,90.038147 901.674133,101.777130 891.220947,112.330544 
	C889.951965,113.611748 888.397644,114.610321 886.975464,115.739838 
	C887.192810,116.129845 887.410095,116.519852 887.627441,116.909859 
	C891.762207,116.486412 895.893555,116.024994 900.032349,115.645508 
	C934.184631,112.514099 968.364075,108.969025 1002.679871,112.269455 
	C1023.103638,114.233788 1043.365234,117.851524 1060.753784,129.848190 
	C1086.446289,147.573853 1097.484741,171.504272 1090.131470,204.773697 
	C1085.390015,226.226990 1076.011597,245.797211 1066.906128,265.581390 
	C1057.793823,285.380615 1042.809448,300.604767 1028.729126,316.458435 
	C1007.166199,340.736877 984.738525,364.239655 959.580322,385.419159 
	C964.512695,396.338593 969.461121,407.160095 974.299438,418.030609 
	C988.066223,448.961212 1001.832825,479.892059 1015.500488,510.866455 
	C1019.580322,520.112366 1023.410156,529.471313 1027.204834,538.839111 
	C1029.136597,543.608276 1030.068115,548.653198 1026.616333,553.079773 
	C1023.046875,557.657227 1018.054443,557.548157 1012.938782,556.110779 
	C1011.019775,555.571594 1008.989258,555.330261 1007.160950,554.582886 
	C986.902527,546.301575 966.209534,538.908691 946.538513,529.403625 
	C910.813599,512.141235 875.701477,493.610779 840.148743,475.515533 
	C821.213074,488.719421 802.010620,502.482758 782.429626,515.684692 
	C742.848755,542.370972 702.688599,568.212891 663.455261,595.395874 
	C614.077576,629.607361 565.093567,664.408264 516.554871,699.798523 
	C498.480316,712.976990 482.141907,728.536621 464.258545,743.646912 
	C473.939667,743.646912 482.495483,744.061035 491.000397,743.578369 
	C538.507080,740.882080 585.057007,731.892090 631.177612,720.828369 
	C650.997314,716.073853 670.251404,708.973938 689.786499,703.018433 
	C760.952515,681.322632 832.101929,659.571960 903.308167,638.008606 
	C982.693176,613.968445 1060.801147,586.563904 1135.742310,550.706604 
	C1148.322754,544.687195 1160.924072,538.710938 1173.540161,532.766602 
	C1180.455322,529.508301 1186.013672,530.816406 1188.530640,536.167358 
	C1191.015381,541.449646 1188.405273,546.617615 1181.518799,549.965576 
	C1129.392578,575.307922 1076.742920,599.584106 1021.992676,618.669373 
	C974.038757,635.385559 925.555420,650.631409 877.054810,665.719482 
	C798.238892,690.238281 719.358032,714.572510 640.196899,737.942383 
	C616.837952,744.838440 592.504639,748.548462 568.506958,753.138977 
	C534.602783,759.624451 500.334290,762.921082 465.801025,763.120422 
	C460.829956,763.149170 455.781830,762.866577 450.897125,762.004333 
	C441.751984,760.389771 437.280151,752.740479 440.753754,744.182556 
	C442.377258,740.182739 445.067291,736.264587 448.200073,733.282288 
	C485.464111,697.809570 527.708496,668.736145 569.170776,638.555847 
	C643.864807,584.186157 721.628662,534.358521 797.746216,482.102631 
	C805.557922,476.739716 813.243774,471.193420 821.551758,465.334717 
	C819.900513,464.435699 818.744019,463.664276 817.484253,463.142212 
	C805.983337,458.376617 794.428345,453.739227 782.979187,448.853241 
	C780.465271,447.780396 778.957153,448.194977 776.782288,449.781708 
	C764.681641,458.610291 752.360596,466.632599 737.040222,469.584076 
	C720.049011,472.857483 705.927673,467.573334 692.684631,458.040405 
	C680.904175,449.560272 672.522278,438.753448 671.273865,423.296661 
	C665.338074,423.831116 659.987061,424.312927 653.980957,424.853699 
	C661.969727,442.617065 661.664124,460.812134 659.480530,478.869324 
	C656.508545,503.445343 644.993164,524.229248 628.187683,542.129761 
	C623.871887,546.726746 619.328369,551.235840 614.320374,555.035156 
	C592.819092,571.347229 571.246155,569.401062 551.611389,549.934814 
	C534.993347,533.459351 524.049927,512.982910 514.981384,491.534393 
	C513.064331,487.000214 510.920227,482.562042 507.594269,477.924225 
	C504.282349,487.074768 500.519165,496.091156 497.749847,505.403076 
	C491.455444,526.568665 485.225494,547.773438 479.868988,569.187378 
	C477.926575,576.952576 478.479950,585.354919 478.015991,593.473450 
	C477.540955,601.785278 470.619934,606.741089 464.175537,602.680908 
	C461.687561,601.113403 459.501251,597.327759 459.174530,594.334656 
	C455.347198,559.274536 451.957672,524.152832 440.937500,490.375458 
	C439.307953,485.380676 437.006775,480.539368 434.447205,475.944031 
	C433.333374,473.944397 430.780457,472.746307 428.495972,471.110046 
M460.687347,238.988388 
	C476.291046,228.149109 491.894745,217.309845 508.220612,205.968903 
	C500.342896,203.906708 492.268372,201.710129 484.128540,199.790665 
	C483.317200,199.599350 481.840363,200.892410 481.126129,201.838913 
	C475.412506,209.410690 469.323547,216.766922 464.372589,224.818283 
	C461.852631,228.916260 461.439423,234.309723 459.650848,238.787140 
	C459.628784,239.059799 459.606750,239.332474 459.584686,239.605133 
	C459.719635,239.399948 459.854553,239.194763 460.687347,238.988388 
M632.739624,83.119095 
	C626.161194,85.880119 618.993958,87.734825 613.106567,91.559532 
	C588.011719,107.862190 563.352844,124.833969 538.420654,141.389603 
	C521.828064,152.407516 508.525452,166.620804 496.815491,183.057159 
	C499.527039,183.783371 502.080261,184.432159 504.613281,185.152008 
	C513.024902,187.542526 520.916443,190.922119 527.059021,197.435196 
	C533.746338,204.525864 533.238220,212.813477 525.290771,218.289078 
	C517.928589,223.361420 509.935150,227.516693 502.565521,232.579254 
	C489.004822,241.894760 475.699371,251.581787 462.284027,261.109070 
	C459.757141,262.903595 457.213898,264.675018 454.568787,266.534027 
	C456.557892,271.608185 457.759186,276.613403 460.337799,280.762726 
	C463.613861,286.034302 467.096527,292.037537 472.087219,295.223663 
	C487.609497,305.133301 503.283722,315.185760 519.989807,322.784729 
	C560.625671,341.268524 601.833252,358.501770 642.906433,376.013885 
	C654.904358,381.129364 667.224976,385.488129 678.939209,390.016541 
	C683.739929,383.733887 687.326233,377.245392 692.531799,372.553375 
	C710.601013,356.266479 731.198303,344.725128 755.590271,340.336700 
	C773.726196,337.073792 791.285706,337.277649 808.426025,344.684998 
	C819.064331,349.282440 821.106995,356.782959 814.041626,366.013000 
	C813.037354,367.325012 811.930176,368.664062 810.597107,369.601501 
	C801.380615,376.082153 792.459900,383.096222 782.739502,388.721008 
	C768.175293,397.148529 753.569458,405.761902 736.477539,409.045013 
	C737.041443,409.950592 737.148621,410.374237 737.386536,410.468781 
	C749.569885,415.308411 761.733826,420.201141 774.002625,424.814819 
	C775.292664,425.299957 777.790527,424.660889 778.742371,423.631805 
	C787.371948,414.301361 797.212036,405.933685 802.868286,394.163818 
	C805.798767,388.065674 811.106995,385.633148 816.164307,389.022949 
	C819.088074,390.982758 821.199524,394.527222 822.966919,397.747955 
	C825.347168,402.085571 826.632935,407.039093 829.127319,411.295288 
	C833.092834,418.062012 839.298462,421.117218 844.745605,417.955078 
	C850.486511,414.622406 856.427368,410.296814 860.064392,404.908875 
	C875.870483,381.493622 890.452026,357.328583 901.070251,330.962524 
	C904.339111,322.845551 908.574585,315.087250 912.785339,307.393402 
	C914.827759,303.661591 918.478577,301.821960 922.968323,302.740570 
	C927.432251,303.653809 929.343567,306.906403 930.768799,310.922394 
	C937.404358,329.620575 944.200989,348.261658 951.133789,367.459686 
	C953.273438,365.666016 954.836914,364.455170 956.289185,363.123016 
	C982.956604,338.662415 1007.980774,312.627869 1031.104858,284.785736 
	C1035.557617,279.424347 1040.567627,274.316772 1043.945435,268.317780 
	C1049.799927,257.919800 1055.034668,247.109924 1059.702759,236.121674 
	C1066.516113,220.084152 1072.376831,203.852814 1073.369751,185.980698 
	C1074.588379,164.047485 1055.175171,145.645737 1039.175903,139.613449 
	C1017.025574,131.262009 993.778564,128.743790 970.409607,130.111252 
	C937.038818,132.064026 903.743042,135.329514 870.432129,138.228775 
	C866.593079,138.562897 862.369812,139.324936 859.161499,141.269257 
	C839.838196,152.979736 820.829834,165.208832 801.547913,176.989197 
	C796.783508,179.899948 791.615173,182.691986 786.257080,183.995712 
	C761.725708,189.964737 737.144531,195.792252 712.418396,200.878845 
	C691.351196,205.212738 669.946472,207.070984 648.385986,206.142151 
	C645.920593,206.035965 643.339844,205.881714 641.043152,205.085068 
	C633.593445,202.501038 631.480591,194.229340 637.094666,188.724457 
	C639.593445,186.274277 643.016357,184.439148 646.348083,183.227417 
	C656.323059,179.599548 666.534302,176.623260 676.521545,173.026779 
	C734.098206,152.293015 792.805054,135.445023 852.371033,121.506905 
	C853.883240,121.153061 855.413574,120.185165 856.568909,119.109825 
	C863.882385,112.302345 871.263062,105.552612 878.290100,98.455688 
	C885.713928,90.958054 892.279968,82.724831 894.622009,72.100128 
	C895.347534,68.808929 896.264954,64.404892 894.745056,61.987511 
	C889.915100,54.305511 883.197449,48.061825 874.374878,45.147221 
	C866.029907,42.390381 857.469788,40.168034 848.873230,38.320297 
	C839.299194,36.262451 829.465271,33.055630 819.944702,33.635571 
	C803.912048,34.612198 787.883972,37.458771 772.125000,40.797798 
	C724.725891,50.840794 679.036987,66.679619 632.739624,83.119095 
M614.389893,407.994843 
	C617.141479,407.994843 619.893066,407.994843 622.644714,407.994843 
	C622.984436,407.445129 623.324219,406.895416 623.663940,406.345703 
	C617.964783,400.465820 612.664124,394.124359 606.490723,388.793610 
	C588.822754,373.537170 567.435425,365.922150 545.279907,359.987793 
	C512.995911,351.340546 480.065613,346.810150 446.775757,345.298492 
	C421.699890,344.159821 396.561188,344.473602 371.462067,343.742737 
	C362.558289,343.483490 353.665802,342.226044 344.812805,341.079742 
	C340.089935,340.468201 336.257751,337.971222 335.120483,332.988922 
	C333.966461,327.933014 335.150757,323.382141 339.395721,319.990448 
	C345.892151,314.799896 352.043274,309.072601 358.982605,304.559814 
	C383.229889,288.791321 407.714233,273.385132 432.219757,258.018768 
	C435.201477,256.149078 436.435333,254.039307 437.065582,250.648544 
	C440.337280,233.046188 445.025208,215.967773 457.155609,201.979935 
	C458.920166,199.945190 460.390930,197.655685 462.744659,194.474457 
	C444.401062,193.238617 427.316742,191.258377 410.217377,191.118439 
	C380.105408,190.871994 349.863861,190.192139 319.894257,192.509171 
	C270.790985,196.305496 222.150604,204.129074 174.282883,216.106125 
	C144.332504,223.600037 114.186836,230.468460 86.107407,243.939667 
	C66.412926,253.388184 50.585789,267.059204 38.764740,285.519562 
	C33.279148,294.086151 32.586700,301.965485 38.046791,310.984772 
	C49.079224,329.208832 65.512329,340.705627 84.435524,348.794189 
	C117.005653,362.716003 151.139084,371.179779 186.201126,375.992889 
	C212.411987,379.591003 238.642822,383.058502 264.811646,386.942169 
	C280.592834,389.284210 296.187805,393.044464 312.016052,394.870819 
	C340.778870,398.189606 369.613678,401.093933 398.490753,403.160919 
	C436.650360,405.892395 474.856384,408.625031 513.085815,409.535461 
	C546.499023,410.331177 579.972351,408.606262 614.389893,407.994843 
M307.083405,477.436493 
	C304.663391,474.473358 302.429413,471.331940 299.790710,468.578400 
	C289.095306,457.417847 277.301025,448.355896 260.808411,447.965118 
	C246.557510,447.627502 232.696548,449.759491 218.850403,452.969391 
	C203.329849,456.567413 190.147903,463.755920 179.030670,475.204468 
	C174.286209,480.090393 169.940033,485.003632 166.232971,490.826904 
	C155.611679,507.511322 145.575974,524.414612 136.994781,542.305176 
	C124.257950,568.859741 136.249924,596.527466 152.974884,607.727417 
	C162.091141,613.832214 172.228683,615.179749 182.827728,615.705872 
	C195.543701,616.337158 195.529510,616.621155 200.281662,605.107483 
	C200.344894,604.954346 200.428894,604.809753 200.495132,604.657715 
	C203.949081,596.729065 212.449982,594.660583 218.882889,600.359924 
	C221.352234,602.547729 223.400208,605.211243 225.927902,607.972229 
	C229.841125,606.199280 234.075714,604.681274 237.916779,602.477478 
	C270.830475,583.593201 300.328979,560.137512 328.171356,534.512695 
	C329.153442,533.608826 329.842194,531.567932 329.590668,530.264832 
	C325.930237,511.300110 319.378571,493.518433 307.083405,477.436493 
M998.818970,531.748901 
	C1000.138123,532.212524 1001.457275,532.676208 1002.776428,533.139832 
	C1003.161499,532.846741 1003.546570,532.553650 1003.931580,532.260559 
	C984.188110,487.695007 964.444641,443.129456 944.910828,399.037292 
	C915.706482,420.346558 886.864197,441.391632 857.833801,462.573914 
	C859.068298,463.318939 860.144714,464.049530 861.290222,464.647858 
	C885.271240,477.173798 909.027954,490.158539 933.317261,502.055908 
	C954.600708,512.480957 976.483887,521.681763 998.818970,531.748901 
M116.030426,621.629089 
	C114.052155,641.649231 111.200394,661.633057 110.366753,681.700806 
	C109.676308,698.321167 111.927467,714.944702 119.957169,730.091919 
	C124.690643,739.021179 129.547119,740.046875 136.372940,732.488464 
	C141.884064,726.385864 146.747696,719.466064 150.732513,712.263611 
	C160.535431,694.545166 169.834381,676.540039 178.987045,658.473450 
	C182.777252,650.991821 185.675781,643.058472 189.392929,634.364380 
	C158.622101,636.078552 135.300888,625.434692 120.128014,597.855896 
	C118.646446,606.352356 117.390762,613.553406 116.030426,621.629089 
M242.071472,626.200684 
	C249.662811,631.177063 257.065491,636.477783 264.900421,641.035461 
	C272.211823,645.288452 279.650543,643.467285 285.869781,638.590210 
	C291.320770,634.315552 296.342957,629.328735 300.861389,624.061890 
	C313.520599,609.305847 320.128143,591.273071 327.083038,573.512207 
	C328.860840,568.972290 329.551514,564.006592 330.741669,559.236511 
	C330.317291,558.921692 329.892914,558.606873 329.468506,558.291992 
	C302.355652,584.029114 271.856537,605.007385 239.397202,623.401062 
	C240.162979,624.228088 240.838837,624.958069 242.071472,626.200684 
M395.475891,302.962097 
	C384.889679,309.992126 374.303467,317.022186 363.717285,324.052216 
	C406.388550,324.011780 448.634613,325.157379 490.753448,329.741882 
	C482.301331,324.137451 473.909241,318.811615 465.343140,313.782196 
	C453.469879,306.810852 445.904480,296.419769 440.878357,283.899963 
	C439.919952,281.512573 438.996552,279.111115 437.878174,276.260345 
	C423.575623,285.250458 409.819763,293.896912 395.475891,302.962097 
M917.921753,395.425140 
	C924.031555,390.377930 930.141296,385.330719 936.224304,380.305573 
	C930.583191,365.706726 925.126099,351.584106 919.269958,336.428894 
	C917.652771,340.243347 916.457336,343.069855 915.256592,345.894073 
	C905.405029,369.065857 892.515625,390.587860 878.487305,411.364441 
	C873.475708,418.786804 866.691223,425.257141 859.831909,431.129333 
	C849.630615,439.862579 832.455505,441.628448 822.163513,431.037354 
	C818.060730,426.815369 814.010071,422.542725 809.653931,417.999268 
	C805.471497,422.776642 800.899170,427.999420 796.330872,433.217499 
	C796.986633,433.812988 797.192932,434.115875 797.477478,434.242035 
	C810.651306,440.080841 823.801147,445.976837 837.062927,451.609070 
	C838.293335,452.131622 840.561829,451.416229 841.806274,450.521698 
	C867.046082,432.379456 892.206543,414.126862 917.921753,395.425140 
M729.231567,369.682831 
	C716.988403,376.183441 705.482666,383.532501 697.903198,396.878876 
	C701.405090,397.490601 704.561096,398.997528 707.192383,398.355011 
	C736.254578,391.258423 763.608948,380.052856 788.590393,363.400909 
	C790.166931,362.350098 791.580261,361.054382 794.341492,358.863220 
	C787.208801,358.124817 781.624817,356.843262 776.115356,357.108917 
	C759.897827,357.890778 744.140686,360.906647 729.231567,369.682831 
M753.392212,442.913818 
	C755.002197,441.817566 756.612122,440.721313 758.794006,439.235687 
	C743.504761,433.312988 728.605957,428.138763 714.246277,421.752197 
	C705.796082,417.993927 698.222107,420.443878 690.230286,421.655548 
	C691.303955,434.239624 699.976318,440.902588 709.336853,446.227081 
	C714.739197,449.300018 721.463379,451.496399 727.593628,451.498871 
	C736.496948,451.502472 745.277527,448.804016 753.392212,442.913818 
M725.122437,179.545059 
	C743.186523,175.261841 761.414307,171.550171 779.242188,166.442459 
	C787.544922,164.063690 795.071960,158.977493 802.950684,155.118515 
	C802.686462,154.482437 802.422241,153.846359 802.158020,153.210266 
	C772.424255,162.060867 742.690430,170.911469 712.956665,179.762070 
	C713.083618,180.325104 713.210510,180.888123 713.337463,181.451157 
	C716.997192,180.908676 720.656921,180.366196 725.122437,179.545059 
M645.205505,406.291718 
	C651.160645,405.881836 657.115845,405.471954 663.070984,405.062042 
	C663.078125,404.793121 663.085205,404.524170 663.092346,404.255249 
	C654.895081,401.089020 646.697876,397.922791 637.465271,394.356628 
	C640.219482,398.891724 642.340698,402.384399 645.205505,406.291718 
z"/>
<path fill="#000000" opacity="1.000000" stroke="none" 
	d="
M633.118408,83.026306 
	C679.036987,66.679619 724.725891,50.840794 772.125000,40.797798 
	C787.883972,37.458771 803.912048,34.612198 819.944702,33.635571 
	C829.465271,33.055630 839.299194,36.262451 848.873230,38.320297 
	C857.469788,40.168034 866.029907,42.390381 874.374878,45.147221 
	C883.197449,48.061825 889.915100,54.305511 894.745056,61.987511 
	C896.264954,64.404892 895.347534,68.808929 894.622009,72.100128 
	C892.279968,82.724831 885.713928,90.958054 878.290100,98.455688 
	C871.263062,105.552612 863.882385,112.302345 856.568909,119.109825 
	C855.413574,120.185165 853.883240,121.153061 852.371033,121.506905 
	C792.805054,135.445023 734.098206,152.293015 676.521545,173.026779 
	C666.534302,176.623260 656.323059,179.599548 646.348083,183.227417 
	C643.016357,184.439148 639.593445,186.274277 637.094666,188.724457 
	C631.480591,194.229340 633.593445,202.501038 641.043152,205.085068 
	C643.339844,205.881714 645.920593,206.035965 648.385986,206.142151 
	C669.946472,207.070984 691.351196,205.212738 712.418396,200.878845 
	C737.144531,195.792252 761.725708,189.964737 786.257080,183.995712 
	C791.615173,182.691986 796.783508,179.899948 801.547913,176.989197 
	C820.829834,165.208832 839.838196,152.979736 859.161499,141.269257 
	C862.369812,139.324936 866.593079,138.562897 870.432129,138.228775 
	C903.743042,135.329514 937.038818,132.064026 970.409607,130.111252 
	C993.778564,128.743790 1017.025574,131.262009 1039.175903,139.613449 
	C1055.175171,145.645737 1074.588379,164.047485 1073.369751,185.980698 
	C1072.376831,203.852814 1066.516113,220.084152 1059.702759,236.121674 
	C1055.034668,247.109924 1049.799927,257.919800 1043.945435,268.317780 
	C1040.567627,274.316772 1035.557617,279.424347 1031.104858,284.785736 
	C1007.980774,312.627869 982.956604,338.662415 956.289185,363.123016 
	C954.836914,364.455170 953.273438,365.666016 951.133789,367.459686 
	C944.200989,348.261658 937.404358,329.620575 930.768799,310.922394 
	C929.343567,306.906403 927.432251,303.653809 922.968323,302.740570 
	C918.478577,301.821960 914.827759,303.661591 912.785339,307.393402 
	C908.574585,315.087250 904.339111,322.845551 901.070251,330.962524 
	C890.452026,357.328583 875.870483,381.493622 860.064392,404.908875 
	C856.427368,410.296814 850.486511,414.622406 844.745605,417.955078 
	C839.298462,421.117218 833.092834,418.062012 829.127319,411.295288 
	C826.632935,407.039093 825.347168,402.085571 822.966919,397.747955 
	C821.199524,394.527222 819.088074,390.982758 816.164307,389.022949 
	C811.106995,385.633148 805.798767,388.065674 802.868286,394.163818 
	C797.212036,405.933685 787.371948,414.301361 778.742371,423.631805 
	C777.790527,424.660889 775.292664,425.299957 774.002625,424.814819 
	C761.733826,420.201141 749.569885,415.308411 737.386536,410.468781 
	C737.148621,410.374237 737.041443,409.950592 736.477539,409.045013 
	C753.569458,405.761902 768.175293,397.148529 782.739502,388.721008 
	C792.459900,383.096222 801.380615,376.082153 810.597107,369.601501 
	C811.930176,368.664062 813.037354,367.325012 814.041626,366.013000 
	C821.106995,356.782959 819.064331,349.282440 808.426025,344.684998 
	C791.285706,337.277649 773.726196,337.073792 755.590271,340.336700 
	C731.198303,344.725128 710.601013,356.266479 692.531799,372.553375 
	C687.326233,377.245392 683.739929,383.733887 678.939209,390.016541 
	C667.224976,385.488129 654.904358,381.129364 642.906433,376.013885 
	C601.833252,358.501770 560.625671,341.268524 519.989807,322.784729 
	C503.283722,315.185760 487.609497,305.133301 472.087219,295.223663 
	C467.096527,292.037537 463.613861,286.034302 460.337799,280.762726 
	C457.759186,276.613403 456.557892,271.608185 454.568787,266.534027 
	C457.213898,264.675018 459.757141,262.903595 462.284027,261.109070 
	C475.699371,251.581787 489.004822,241.894760 502.565521,232.579254 
	C509.935150,227.516693 517.928589,223.361420 525.290771,218.289078 
	C533.238220,212.813477 533.746338,204.525864 527.059021,197.435196 
	C520.916443,190.922119 513.024902,187.542526 504.613281,185.152008 
	C502.080261,184.432159 499.527039,183.783371 496.815491,183.057159 
	C508.525452,166.620804 521.828064,152.407516 538.420654,141.389603 
	C563.352844,124.833969 588.011719,107.862190 613.106567,91.559532 
	C618.993958,87.734825 626.161194,85.880119 633.118408,83.026306 
z"/>
<path fill="#010101" opacity="1.000000" stroke="none" 
	d="
M613.904480,407.994873 
	C579.972351,408.606262 546.499023,410.331177 513.085815,409.535461 
	C474.856384,408.625031 436.650360,405.892395 398.490753,403.160919 
	C369.613678,401.093933 340.778870,398.189606 312.016052,394.870819 
	C296.187805,393.044464 280.592834,389.284210 264.811646,386.942169 
	C238.642822,383.058502 212.411987,379.591003 186.201126,375.992889 
	C151.139084,371.179779 117.005653,362.716003 84.435524,348.794189 
	C65.512329,340.705627 49.079224,329.208832 38.046791,310.984772 
	C32.586700,301.965485 33.279148,294.086151 38.764740,285.519562 
	C50.585789,267.059204 66.412926,253.388184 86.107407,243.939667 
	C114.186836,230.468460 144.332504,223.600037 174.282883,216.106125 
	C222.150604,204.129074 270.790985,196.305496 319.894257,192.509171 
	C349.863861,190.192139 380.105408,190.871994 410.217377,191.118439 
	C427.316742,191.258377 444.401062,193.238617 462.744659,194.474457 
	C460.390930,197.655685 458.920166,199.945190 457.155609,201.979935 
	C445.025208,215.967773 440.337280,233.046188 437.065582,250.648544 
	C436.435333,254.039307 435.201477,256.149078 432.219757,258.018768 
	C407.714233,273.385132 383.229889,288.791321 358.982605,304.559814 
	C352.043274,309.072601 345.892151,314.799896 339.395721,319.990448 
	C335.150757,323.382141 333.966461,327.933014 335.120483,332.988922 
	C336.257751,337.971222 340.089935,340.468201 344.812805,341.079742 
	C353.665802,342.226044 362.558289,343.483490 371.462067,343.742737 
	C396.561188,344.473602 421.699890,344.159821 446.775757,345.298492 
	C480.065613,346.810150 512.995911,351.340546 545.279907,359.987793 
	C567.435425,365.922150 588.822754,373.537170 606.490723,388.793610 
	C612.664124,394.124359 617.964783,400.465820 623.663940,406.345703 
	C623.324219,406.895416 622.984436,407.445129 622.644714,407.994843 
	C619.893066,407.994843 617.141479,407.994843 613.904480,407.994873 
z"/>
<path fill="#010101" opacity="1.000000" stroke="none" 
	d="
M307.309814,477.713013 
	C319.378571,493.518433 325.930237,511.300110 329.590668,530.264832 
	C329.842194,531.567932 329.153442,533.608826 328.171356,534.512695 
	C300.328979,560.137512 270.830475,583.593201 237.916779,602.477478 
	C234.075714,604.681274 229.841125,606.199280 225.927902,607.972229 
	C223.400208,605.211243 221.352234,602.547729 218.882889,600.359924 
	C212.449982,594.660583 203.949081,596.729065 200.495132,604.657715 
	C200.428894,604.809753 200.344894,604.954346 200.281662,605.107483 
	C195.529510,616.621155 195.543701,616.337158 182.827728,615.705872 
	C172.228683,615.179749 162.091141,613.832214 152.974884,607.727417 
	C136.249924,596.527466 124.257950,568.859741 136.994781,542.305176 
	C145.575974,524.414612 155.611679,507.511322 166.232971,490.826904 
	C169.940033,485.003632 174.286209,480.090393 179.030670,475.204468 
	C190.147903,463.755920 203.329849,456.567413 218.850403,452.969391 
	C232.696548,449.759491 246.557510,447.627502 260.808411,447.965118 
	C277.301025,448.355896 289.095306,457.417847 299.790710,468.578400 
	C302.429413,471.331940 304.663391,474.473358 307.309814,477.713013 
z"/>
<path fill="#010101" opacity="1.000000" stroke="none" 
	d="
M998.460571,531.586121 
	C976.483887,521.681763 954.600708,512.480957 933.317261,502.055908 
	C909.027954,490.158539 885.271240,477.173798 861.290222,464.647858 
	C860.144714,464.049530 859.068298,463.318939 857.833801,462.573914 
	C886.864197,441.391632 915.706482,420.346558 944.910828,399.037292 
	C964.444641,443.129456 984.188110,487.695007 1003.931580,532.260559 
	C1003.546570,532.553650 1003.161499,532.846741 1002.776428,533.139832 
	C1001.457275,532.676208 1000.138123,532.212524 998.460571,531.586121 
z"/>
<path fill="#020202" opacity="1.000000" stroke="none" 
	d="
M116.082748,621.191772 
	C117.390762,613.553406 118.646446,606.352356 120.128014,597.855896 
	C135.300888,625.434692 158.622101,636.078552 189.392929,634.364380 
	C185.675781,643.058472 182.777252,650.991821 178.987045,658.473450 
	C169.834381,676.540039 160.535431,694.545166 150.732513,712.263611 
	C146.747696,719.466064 141.884064,726.385864 136.372940,732.488464 
	C129.547119,740.046875 124.690643,739.021179 119.957169,730.091919 
	C111.927467,714.944702 109.676308,698.321167 110.366753,681.700806 
	C111.200394,661.633057 114.052155,641.649231 116.082748,621.191772 
z"/>
<path fill="#020202" opacity="1.000000" stroke="none" 
	d="
M241.793091,625.944336 
	C240.838837,624.958069 240.162979,624.228088 239.397202,623.401062 
	C271.856537,605.007385 302.355652,584.029114 329.468506,558.291992 
	C329.892914,558.606873 330.317291,558.921692 330.741669,559.236511 
	C329.551514,564.006592 328.860840,568.972290 327.083038,573.512207 
	C320.128143,591.273071 313.520599,609.305847 300.861389,624.061890 
	C296.342957,629.328735 291.320770,634.315552 285.869781,638.590210 
	C279.650543,643.467285 272.211823,645.288452 264.900421,641.035461 
	C257.065491,636.477783 249.662811,631.177063 241.793091,625.944336 
z"/>
<path fill="#030303" opacity="1.000000" stroke="none" 
	d="
M395.769897,302.752747 
	C409.819763,293.896912 423.575623,285.250458 437.878174,276.260345 
	C438.996552,279.111115 439.919952,281.512573 440.878357,283.899963 
	C445.904480,296.419769 453.469879,306.810852 465.343140,313.782196 
	C473.909241,318.811615 482.301331,324.137451 490.753448,329.741882 
	C448.634613,325.157379 406.388550,324.011780 363.717285,324.052216 
	C374.303467,317.022186 384.889679,309.992126 395.769897,302.752747 
z"/>
<path fill="#040404" opacity="1.000000" stroke="none" 
	d="
M917.652344,395.660767 
	C892.206543,414.126862 867.046082,432.379456 841.806274,450.521698 
	C840.561829,451.416229 838.293335,452.131622 837.062927,451.609070 
	C823.801147,445.976837 810.651306,440.080841 797.477478,434.242035 
	C797.192932,434.115875 796.986633,433.812988 796.330872,433.217499 
	C800.899170,427.999420 805.471497,422.776642 809.653931,417.999268 
	C814.010071,422.542725 818.060730,426.815369 822.163513,431.037354 
	C832.455505,441.628448 849.630615,439.862579 859.831909,431.129333 
	C866.691223,425.257141 873.475708,418.786804 878.487305,411.364441 
	C892.515625,390.587860 905.405029,369.065857 915.256592,345.894073 
	C916.457336,343.069855 917.652771,340.243347 919.269958,336.428894 
	C925.126099,351.584106 930.583191,365.706726 936.224304,380.305573 
	C930.141296,385.330719 924.031555,390.377930 917.652344,395.660767 
z"/>
<path fill="#030303" opacity="1.000000" stroke="none" 
	d="
M729.544556,369.476746 
	C744.140686,360.906647 759.897827,357.890778 776.115356,357.108917 
	C781.624817,356.843262 787.208801,358.124817 794.341492,358.863220 
	C791.580261,361.054382 790.166931,362.350098 788.590393,363.400909 
	C763.608948,380.052856 736.254578,391.258423 707.192383,398.355011 
	C704.561096,398.997528 701.405090,397.490601 697.903198,396.878876 
	C705.482666,383.532501 716.988403,376.183441 729.544556,369.476746 
z"/>
<path fill="#030303" opacity="1.000000" stroke="none" 
	d="
M753.076416,443.100464 
	C745.277527,448.804016 736.496948,451.502472 727.593628,451.498871 
	C721.463379,451.496399 714.739197,449.300018 709.336853,446.227081 
	C699.976318,440.902588 691.303955,434.239624 690.230286,421.655548 
	C698.222107,420.443878 705.796082,417.993927 714.246277,421.752197 
	C728.605957,428.138763 743.504761,433.312988 758.794006,439.235687 
	C756.612122,440.721313 755.002197,441.817566 753.076416,443.100464 
z"/>
<path fill="#050505" opacity="1.000000" stroke="none" 
	d="
M460.073914,239.117584 
	C461.439423,234.309723 461.852631,228.916260 464.372589,224.818283 
	C469.323547,216.766922 475.412506,209.410690 481.126129,201.838913 
	C481.840363,200.892410 483.317200,199.599350 484.128540,199.790665 
	C492.268372,201.710129 500.342896,203.906708 508.220612,205.968903 
	C491.894745,217.309845 476.291046,228.149109 460.361450,239.019714 
	C460.035553,239.051056 460.073914,239.117584 460.073914,239.117584 
z"/>
<path fill="#0C0C0C" opacity="1.000000" stroke="none" 
	d="
M724.719543,179.684387 
	C720.656921,180.366196 716.997192,180.908676 713.337463,181.451157 
	C713.210510,180.888123 713.083618,180.325104 712.956665,179.762070 
	C742.690430,170.911469 772.424255,162.060867 802.158020,153.210266 
	C802.422241,153.846359 802.686462,154.482437 802.950684,155.118515 
	C795.071960,158.977493 787.544922,164.063690 779.242188,166.442459 
	C761.414307,171.550171 743.186523,175.261841 724.719543,179.684387 
z"/>
<path fill="#0E0E0E" opacity="1.000000" stroke="none" 
	d="
M644.833679,406.084412 
	C642.340698,402.384399 640.219482,398.891724 637.465271,394.356628 
	C646.697876,397.922791 654.895081,401.089020 663.092346,404.255249 
	C663.085205,404.524170 663.078125,404.793121 663.070984,405.062042 
	C657.115845,405.471954 651.160645,405.881836 644.833679,406.084412 
z"/>
<path fill="#050505" opacity="1.000000" stroke="none" 
	d="
M460.012512,239.020325 
	C459.854553,239.194763 459.719635,239.399948 459.584717,239.605133 
	C459.606750,239.332474 459.628784,239.059799 459.862366,238.952362 
	C460.073914,239.117584 460.035553,239.051056 460.012512,239.020325 
z"/>
</svg>