<svg id="SvgjsSvg1001" width="288" height="288" xmlns="http://www.w3.org/2000/svg" version="1.1" xmlns:xlink="http://www.w3.org/1999/xlink" xmlns:svgjs="http://svgjs.com/svgjs"><circle id="SvgjsCircle1015" r="144" cx="144" cy="144" transform="matrix(1,0,0,1,0,0)" fill="#ff8066"></circle><defs id="SvgjsDefs1002"></defs><g id="SvgjsG1008" transform="matrix(0.9,0,0,0.9,14.337479853630072,14.284019470214844)"><svg xmlns="http://www.w3.org/2000/svg" viewBox="0 0 619 403" width="288" height="288"><path fill="#0b0b0b" d="M0 0 C0.78052734 0.16064941 1.56105469 0.32129883 2.36523438 0.48681641 C5.14517447 1.07145421 7.9169038 1.68510525 10.6875 2.3125 C11.57945068 2.51294922 12.47140137 2.71339844 13.39038086 2.91992188 C23.81100472 5.4277818 31.24713265 9.75965907 38.4375 17.6875 C41.01644385 23.15486096 40.94036268 28.58909867 39.33984375 34.39453125 C36.94109811 40.32389818 33.09140072 45.13858847 29 50 C29.33 50.33 29.66 50.66 30 51 C31.51887056 50.94537395 33.03514688 50.81709533 34.546875 50.66015625 C35.52277588 50.56629639 36.49867676 50.47243652 37.50415039 50.37573242 C38.57528076 50.27236572 39.64641113 50.16899902 40.75 50.0625 C60.39275595 48.35350158 80.75971797 46.916765 100 52 C101.38058594 52.29003906 101.38058594 52.29003906 102.7890625 52.5859375 C113.60138608 55.16348832 122.19361157 62.71970396 128 72 C132.99119625 80.17554367 131.91661879 90.86693479 130.296875 99.9375 C128.09131686 109.01920997 124.17752157 117.4925843 120.25 125.9375 C119.77336914 126.97962646 119.29673828 128.02175293 118.80566406 129.09545898 C115.72566455 135.46767872 112.20621323 140.41217575 107.32373047 145.52563477 C105.0154208 147.98357955 102.94816887 150.53580081 100.8671875 153.1875 C94.8263764 160.64334681 87.94732284 167.26726664 81.125 174 C79.7937997 175.32114003 78.46306746 176.64275186 77.1328125 177.96484375 C74.22654026 180.85168079 71.31592996 183.73405523 68.40115356 186.61230469 C66.92925546 188.07006503 65.46374519 189.53405725 64 191 C64.31638428 191.70793701 64.63276855 192.41587402 64.95874023 193.14526367 C66.45327721 196.49195609 67.94601334 199.83944736 69.4375 203.1875 C69.70977417 203.79857605 69.98204834 204.4096521 70.26257324 205.03924561 C73.8249274 213.04000706 77.33125294 221.06161468 80.75 229.125 C83.42966392 235.44383978 86.22521434 241.68370269 89.1875 247.875 C91.75174532 253.26849442 94.25181438 258.67987585 96.5625 264.1875 C97.05878906 265.35667969 97.55507813 266.52585937 98.06640625 267.73046875 C99.09941827 271.34817192 99.11364686 273.42079078 98 277 C94.54855974 279.30096018 92.8688226 279.22727251 88.8515625 278.640625 C69.26714509 274.24083808 49.71428064 263.21972557 32.0625 253.875 C31.32765381 253.48715332 30.59280762 253.09930664 29.83569336 252.69970703 C25.65263173 250.47100782 21.52698146 248.15932907 17.41796875 245.796875 C16.4736499 245.26852051 15.52933105 244.74016602 14.55639648 244.19580078 C12.72786669 243.17233313 10.91253586 242.12480149 9.11352539 241.05029297 C6.73171613 239.73178727 4.63855436 238.67181227 2 238 C-1.13062735 239.17102385 -2.53588144 239.96528358 -5 242 C-6.25674787 242.89396154 -7.51598057 243.78443748 -8.77734375 244.671875 C-10.16533609 245.69619314 -11.55197361 246.72234878 -12.9375 247.75 C-22.76524006 254.92955269 -32.86969938 261.65394518 -43.02001953 268.36572266 C-50.57310671 273.36235792 -58.11305268 278.37879154 -65.65185547 283.39694214 C-68.36289168 285.20036928 -71.07591082 287.00078305 -73.7890625 288.80102539 C-87.7394271 298.07372747 -101.45395378 307.64634651 -115 317.5 C-120.8289478 321.72377367 -126.67888707 325.91519093 -132.5625 330.0625 C-133.25698242 330.55218262 -133.95146484 331.04186523 -134.66699219 331.54638672 C-138.23547718 334.05990623 -141.80892519 336.56615619 -145.38671875 339.06640625 C-156.96641596 347.17245237 -168.28582289 355.35389654 -178.69921875 364.94921875 C-181.97013095 367.86471774 -185.44755008 370.44252738 -189 373 C-169.10825742 373.33963136 -149.56177378 370.3238341 -130.0625 366.6875 C-129.31574005 366.55101044 -128.5689801 366.41452087 -127.79959106 366.27389526 C-107.73547167 362.57378191 -88.3922508 356.25875584 -68.94232178 350.19741821 C-48.94968245 343.96892712 -28.9289078 337.84059266 -8.875 331.8125 C14.03606233 324.9194694 36.91435272 317.92858208 59.72753906 310.71759033 C61.81242695 310.05923121 63.89825125 309.40394166 65.984375 308.74951172 C97.30630969 298.87164722 128.13788387 286.27420624 157.6015625 271.7734375 C158.65827148 271.25547607 159.71498047 270.73751465 160.80371094 270.20385742 C162.79560688 269.22041818 164.7811312 268.22392475 166.75878906 267.2121582 C168.08088379 266.55606567 168.08088379 266.55606567 169.4296875 265.88671875 C170.19522949 265.49701904 170.96077148 265.10731934 171.74951172 264.70581055 C174.56390991 263.82314347 176.20971639 264.11387675 179 265 C181 267 181 267 181.4375 269.375 C180.81608763 273.10347425 179.02482471 273.83499736 176 276 C171.91611038 278.3061656 167.66769031 280.28964145 163.4375 282.3125 C162.5003566 282.76345032 162.5003566 282.76345032 161.54428101 283.22351074 C145.6258165 290.86117175 129.33526339 297.5933287 112.96844482 304.20172119 C110.20387968 305.32285689 107.44868917 306.46656161 104.69140625 307.60546875 C69.40313193 321.919127 32.26317234 331.91118578 -4.18261719 342.8347168 C-6.84576901 343.63308123 -9.5088591 344.43165105 -12.171875 345.23046875 C-13.15829105 345.52635674 -13.15829105 345.52635674 -14.1646347 345.82822227 C-30.98955051 350.87810645 -47.76685273 356.08035788 -64.5378418 361.30639648 C-106.02749156 374.22082694 -106.02749156 374.22082694 -124.5625 377.75 C-126.06185304 378.04311062 -127.56120193 378.33624252 -129.06054688 378.62939453 C-140.9745328 380.92850022 -152.92566888 382.77071833 -165 384 C-165.87865723 384.0928125 -166.75731445 384.185625 -167.66259766 384.28125 C-174.23952065 384.93485725 -180.76704716 385.21354233 -187.375 385.25 C-188.81166016 385.2809375 -188.81166016 385.2809375 -190.27734375 385.3125 C-199.05748622 385.36134641 -199.05748622 385.36134641 -203 382 C-205 379 -205 379 -205.0625 376.3125 C-202.06409676 366.96453696 -192.08532497 360.59719929 -184.79345703 354.51269531 C-183.13168577 353.11107065 -181.49728408 351.68480086 -179.87109375 350.2421875 C-172.25509923 343.53489188 -164.12077159 337.84789035 -155.703125 332.19140625 C-151.51699085 329.37212116 -147.42754667 326.44477287 -143.375 323.4375 C-136.04749328 318.00785691 -128.60730054 312.74827184 -121.14404297 307.50732422 C-118.35075863 305.54356454 -115.5628577 303.57224551 -112.77514648 301.60058594 C-110.65616503 300.10285188 -108.53531085 298.6078026 -106.4140625 297.11328125 C-103.40396094 294.99249733 -100.39988729 292.86347556 -97.3984375 290.73046875 C-84.81110053 281.8168494 -71.94250072 273.3655364 -59.01171875 264.96289062 C-42.7497301 254.3641237 -26.6101968 243.54228535 -11 232 C-14.16718971 229.88854019 -17.41637893 228.30314377 -20.875 226.75 C-21.48730469 226.45609375 -22.09960938 226.1621875 -22.73046875 225.859375 C-25.62554505 224.56991918 -27.45682438 223.87200091 -30.5859375 224.609375 C-33.338379 226.19492383 -36.05536901 227.81763779 -38.75 229.5 C-43.82379918 232.49447534 -48.15098363 234.36026383 -54 235 C-55.6396875 235.2165625 -55.6396875 235.2165625 -57.3125 235.4375 C-66.97811374 234.29073227 -75.82548456 229.53542904 -82 222 C-84.00098872 218.43955528 -85.59781708 214.83310305 -87 211 C-88.98 211 -90.96 211 -93 211 C-92.7834375 211.53625 -92.566875 212.0725 -92.34375 212.625 C-87.30558562 226.80649974 -89.39694735 242.66548621 -95.625 256.125 C-101.94951921 267.97564615 -111.15751549 279.2432556 -124.2734375 283.3984375 C-130.75887457 284.8293219 -135.35899994 283.61184392 -141.125 280.4375 C-154.86004162 271.47894117 -161.70592695 255.10849051 -169 241 C-172.38238304 248.84509243 -174.8241285 256.84322709 -177.125 265.0625 C-177.47175781 266.27744141 -177.81851563 267.49238281 -178.17578125 268.74414062 C-180.90872513 278.40368367 -183.15612652 287.34973967 -183.55859375 297.3984375 C-184.05682838 300.33493541 -184.61232228 301.27396791 -187 303 C-189.7512549 303.41268823 -191.27423425 303.50081171 -193.59423828 301.89990234 C-195.65421042 299.11582745 -195.65840289 296.65535934 -195.9921875 293.2265625 C-196.13845459 291.83982081 -196.28494798 290.45310298 -196.43164062 289.06640625 C-196.50358643 288.3408252 -196.57553223 287.61524414 -196.6496582 286.86767578 C-197.72770666 276.13858251 -198.96162516 265.496523 -201.5 255 C-201.78399658 253.80431396 -201.78399658 253.80431396 -202.07373047 252.58447266 C-203.44727428 247.22730638 -205.01872561 241.6993631 -208 237 C-210.40683018 235.57177953 -210.40683018 235.57177953 -213 236 C-223.56629333 240.3323763 -231.80531991 251.49719626 -239 260 C-240.06153443 261.25082009 -241.12399954 262.50085108 -242.1875 263.75 C-242.63480469 264.28109375 -243.08210937 264.8121875 -243.54296875 265.359375 C-245 267 -245 267 -247.1484375 268.8046875 C-249.62954408 271.74642147 -249.43314188 273.56600643 -249.4375 277.375 C-250.30000397 295.89008531 -260.64433077 314.39205728 -274 326.9375 C-279.05330645 331.1222694 -284.88593304 333.83104639 -291.6015625 333.5390625 C-300.49074849 331.54116728 -308.51105147 326.49347777 -314.25390625 319.50390625 C-316.57089384 317.50829054 -318.02681868 317.88311296 -321 318 C-321.33523682 318.88703613 -321.67047363 319.77407227 -322.01586914 320.68798828 C-325.59749112 329.99199009 -329.74372662 338.88821454 -334.33129883 347.73632812 C-335.44452044 349.88857295 -336.54002478 352.04924482 -337.63476562 354.2109375 C-348.85595154 376.12866738 -348.85595154 376.12866738 -359 381 C-363.30597225 381.9952483 -366.99291174 381.96853678 -371.015625 380.02734375 C-378.64574515 374.33792808 -381.08731123 364.89994852 -382.60522461 355.95141602 C-385.72419877 332.63337107 -381.70149026 307.73243765 -375.20703125 285.3125 C-374.37315542 282.43195622 -373.66927201 279.56418261 -373.07421875 276.625 C-369.40168162 258.55514123 -361.13887889 244.74042426 -348.0625 231.8125 C-347.38509766 231.12736328 -346.70769531 230.44222656 -346.00976562 229.73632812 C-332.95528052 216.73190815 -317.16080437 212.16091888 -298.875 211.6875 C-286.56848459 211.91765485 -277.84389935 216.27416553 -268.9375 224.625 C-260.20139275 233.81267542 -255.23701565 244.25191114 -251 256 C-246.56409791 251.78166259 -242.54421657 247.48314213 -238.8125 242.625 C-231.8243509 233.92917495 -221.94600737 224.99325092 -210.5 223.5625 C-205.22700004 224.22162499 -201.953349 225.8513161 -198.4375 229.71875 C-192.34044912 238.48326063 -190.50136321 249.78274899 -188 260 C-187.78384033 259.3201001 -187.56768066 258.6402002 -187.3449707 257.93969727 C-186.34398529 254.81072054 -185.32835936 251.68667788 -184.3125 248.5625 C-183.80299805 246.95858398 -183.80299805 246.95858398 -183.28320312 245.32226562 C-177.93159458 228.9673498 -177.93159458 228.9673498 -172 224 C-168.6875 223.25 -168.6875 223.25 -165 224 C-159.80706039 229.74670527 -156.83547331 237.3359261 -153.6875 244.3125 C-146.50488649 260.79885622 -146.50488649 260.79885622 -132.8984375 271.57421875 C-128.76802342 272.50058734 -125.78377552 271.95134694 -122.06640625 269.96875 C-112.78159071 263.74267486 -105.70795133 252.73776853 -102.75 242 C-100.84823839 232.21951174 -101.27320605 221.54377883 -104 212 C-104.97694321 212.0702388 -105.95388641 212.1404776 -106.96043396 212.21284485 C-116.43049742 212.86614155 -125.85195647 213.15988743 -135.34765625 213.16796875 C-136.775101 213.17120369 -138.20254546 213.17456916 -139.62998962 213.17805481 C-142.60562909 213.18398377 -145.58123983 213.18590165 -148.55688477 213.18530273 C-151.53383561 213.18522223 -154.51063008 213.19205407 -157.48754883 213.20581055 C-178.08585904 213.29930367 -198.4560093 212.65102055 -219 211 C-220.12590546 210.91076263 -221.25181091 210.82152527 -222.41183472 210.72958374 C-229.84317697 210.13151609 -237.26632394 209.46263137 -244.6875 208.75 C-245.79720154 208.6442868 -246.90690308 208.53857361 -248.05023193 208.42965698 C-264.16219813 206.87627272 -280.06012809 204.79048984 -295.98600769 201.91897583 C-296.68929703 201.79231537 -297.39258636 201.66565491 -298.1171875 201.53515625 C-299.17230278 201.34480301 -299.17230278 201.34480301 -300.24873352 201.15060425 C-308.79406547 199.63801056 -317.39609181 198.53499278 -325.99472046 197.37454224 C-383.78720184 189.51845181 -383.78720184 189.51845181 -405 173 C-405.86753906 172.33484375 -406.73507812 171.6696875 -407.62890625 170.984375 C-415.05118649 164.83416962 -420.29583666 157.58586872 -423.125 148.3125 C-422.71726632 137.50755739 -416.04163778 128.74707262 -409 121 C-381.75836735 95.8478124 -334.7744828 89.43057587 -299.22949219 84.453125 C-296.94701929 84.1328748 -294.66655823 83.79812723 -292.38769531 83.453125 C-273.39414096 80.62297545 -254.64118639 79.61805344 -235.4375 79.625 C-234.3563089 79.62418427 -233.2751178 79.62336853 -232.16116333 79.62252808 C-219.79572262 79.63846037 -207.81671273 80.20576706 -195.5625 81.8125 C-189.08032225 82.7343271 -189.08032225 82.7343271 -182.98925781 80.89941406 C-178.94039986 77.54703903 -176.61553537 73.49335564 -174 69 C-165.48266024 59.99472502 -155.41185475 53.00837415 -145.12182617 46.21557617 C-143.1950654 44.94249872 -141.27593664 43.65850811 -139.35742188 42.37304688 C-127.74833852 34.6348022 -116.15764883 27.2214206 -102.875 22.6875 C-101.84076904 22.3255957 -100.80653809 21.96369141 -99.7409668 21.59082031 C-77.28007486 13.85974575 -54.38375959 6.34039439 -31 2 C-30.11908691 1.83532227 -29.23817383 1.67064453 -28.33056641 1.50097656 C-9.36467699 -1.94117048 -9.36467699 -1.94117048 0 0 Z M-81.0625 27 C-82.45766342 27.44844269 -82.45766342 27.44844269 -83.88101196 27.90594482 C-100.71731516 33.33648319 -115.76239154 39.28531643 -130.44116211 49.30273438 C-132.55610171 50.74563482 -134.68202614 52.17098001 -136.81054688 53.59375 C-153.98113877 64.97279864 -153.98113877 64.97279864 -168.8125 79.125 C-169.32619141 79.69992188 -169.83988281 80.27484375 -170.36914062 80.8671875 C-171.58953062 82.23584918 -172.79647326 83.61648638 -174 85 C-173.1646468 87.24089145 -173.1646468 87.24089145 -170.671875 87.859375 C-169.70765625 88.15328125 -168.7434375 88.4471875 -167.75 88.75 C-162.4395799 90.61694457 -159.76973032 92.054053 -157 97 C-156.6875 100 -156.6875 100 -158 103 C-162.60431516 107.78744133 -168.88247547 110.64039473 -174.63330078 113.81884766 C-180.65049605 117.22057302 -185.78132564 121.48563454 -191 126 C-192.66124302 127.34008477 -194.32637093 128.67541656 -196 130 C-195.24489178 131.86935329 -194.44339732 133.71997565 -193.625 135.5625 C-193.18414062 136.59503906 -192.74328125 137.62757813 -192.2890625 138.69140625 C-187.55226327 146.84563342 -176.23705597 151.28807427 -168.1875 155.4375 C-167.03588379 156.03167725 -165.88426758 156.62585449 -164.69775391 157.23803711 C-143.59609109 167.98791093 -121.54187106 176.89998841 -99.56646729 185.68624878 C-98.11441149 186.26684867 -96.66334483 186.84992896 -95.21331787 187.43557739 C-93.21639494 188.23940994 -91.21480327 189.0300694 -89.2109375 189.81640625 C-87.51396729 190.48845093 -87.51396729 190.48845093 -85.78271484 191.17407227 C-82.95369622 192.30295028 -82.95369622 192.30295028 -80 191 C-78.71717301 189.39995903 -78.71717301 189.39995903 -77.5 187.4375 C-68.64780298 175.27932277 -53.61036493 169.04587992 -39.1730957 166.70556641 C-29.98750914 165.42889379 -19.99904618 165.67773835 -12 171 C-10.53515625 173.265625 -10.53515625 173.265625 -10 176 C-13.56081303 186.02114523 -24.90562522 190.66596802 -33.75 195.375 C-34.55373047 195.80393555 -35.35746094 196.23287109 -36.18554688 196.67480469 C-40.73143971 199.03047206 -45.02281316 200.78897326 -50 202 C-47.38578885 205.15188579 -44.39377798 206.283885 -40.625 207.75 C-39.50351562 208.19859375 -38.38203125 208.6471875 -37.2265625 209.109375 C-33.80598756 210.05355307 -32.28024169 210.28615737 -29 209 C-23.55774682 204.2093488 -19.23336775 198.4667355 -16 192 C-11.60417503 191.648334 -11.60417503 191.648334 -9 193 C-7.0752879 195.96744551 -5.67185968 198.97345131 -4.26171875 202.21484375 C-3.16581984 205.06905425 -3.16581984 205.06905425 -1 207 C2.78629056 207.22717743 4.81952886 206.89905081 7.8515625 204.58984375 C18.56984826 193.49663852 25.35698884 177.74800631 32 164 C33.26303954 161.41277429 34.53624694 158.83072712 35.8125 156.25 C36.37582031 155.10015625 36.93914062 153.9503125 37.51953125 152.765625 C39 150 39 150 41 148 C43.47265625 148.0546875 43.47265625 148.0546875 46 149 C47.37109375 151.1953125 47.37109375 151.1953125 48.4375 154.125 C49.04851562 155.73761719 49.04851562 155.73761719 49.671875 157.3828125 C50.11015625 158.57648438 50.5484375 159.77015625 51 161 C51.78573872 163.00810947 52.58535497 165.01019166 53.38891602 167.01123047 C53.91175536 168.31329384 54.43063163 169.61695727 54.94506836 170.92236328 C56.17251167 174.02558538 57.48403237 177.02862269 59 180 C65.44500715 174.54364443 71.46611079 168.71708395 77.4375 162.75 C78.32759766 161.87214844 79.21769531 160.99429688 80.13476562 160.08984375 C85.42846811 154.80774178 90.31925584 149.36230595 94.96923828 143.50439453 C97.03739418 140.95388441 99.21666888 138.54277372 101.4375 136.125 C113.00889368 121.9754186 120.45484574 102.3479492 120.43359375 84.15625 C119.39319214 76.58287613 114.69163828 71.687822 109 67 C97.99073354 59.86875304 82.71880901 59.48904824 70.0625 59.625 C69.05458405 59.62998505 69.05458405 59.62998505 68.02630615 59.6350708 C57.18082026 59.69696882 46.42005741 60.35169821 35.625 61.375 C34.62401779 61.46941376 34.62401779 61.46941376 33.60281372 61.56573486 C19.13640548 62.31373201 19.13640548 62.31373201 6.3125 68.0625 C0.40116391 72.51688199 -5.81490935 76.28036168 -12.22167969 79.97167969 C-13.76395208 80.86350442 -15.29338446 81.77746379 -16.8203125 82.6953125 C-33.19255731 91.8122185 -53.70317129 94.26058654 -72 97 C-72.67780518 97.1045752 -73.35561035 97.20915039 -74.05395508 97.31689453 C-79.63241283 98.10565332 -85.18438287 98.218492 -90.8125 98.25 C-91.75287109 98.270625 -92.69324219 98.29125 -93.66210938 98.3125 C-94.56380859 98.31765625 -95.46550781 98.3228125 -96.39453125 98.328125 C-97.20768799 98.3374707 -98.02084473 98.34681641 -98.85864258 98.35644531 C-101.5284772 97.91203093 -102.40663212 97.15828634 -104 95 C-104.25 92.0625 -104.25 92.0625 -103 89 C-94.79953703 84.73139053 -85.82385537 82.133368 -77.0625 79.25 C-76.26322083 78.9857724 -75.46394165 78.7215448 -74.64044189 78.4493103 C-50.45359584 70.45540376 -26.16434183 63.29516125 -1.50317383 56.92626953 C-0.34712646 56.62060059 0.8089209 56.31493164 2 56 C3.23524414 55.68281006 4.47048828 55.36562012 5.74316406 55.03881836 C8.62407129 54.11990829 10.1515927 53.50052324 12.31640625 51.49609375 C12.85040039 51.00729736 13.38439453 50.51850098 13.93457031 50.01489258 C14.47178711 49.49435303 15.00900391 48.97381348 15.5625 48.4375 C16.12678711 47.89955811 16.69107422 47.36161621 17.27246094 46.80737305 C23.38741191 40.84219407 28.83840148 34.92941832 29.3046875 26.0078125 C28.77355013 22.50775345 26.71999288 21.05510573 24 19 C23.39776611 18.49428467 22.79553223 17.98856934 22.17504883 17.4675293 C19.60451019 15.73315869 17.39862372 15.1174181 14.38671875 14.39453125 C13.30326172 14.13349609 12.21980469 13.87246094 11.10351562 13.60351562 C9.41258789 13.21196289 9.41258789 13.21196289 7.6875 12.8125 C6.57181641 12.53986328 5.45613281 12.26722656 4.30664062 11.98632812 C-23.3472748 5.44577551 -54.8351914 18.52878946 -81.0625 27 Z M-30.85546875 74.87109375 C-31.51710526 75.0722731 -32.17874176 75.27345245 -32.86042786 75.48072815 C-34.97204655 76.12484487 -37.0797055 76.78098959 -39.1875 77.4375 C-40.61889629 77.87644859 -42.05053444 78.31460935 -43.48242188 78.75195312 C-46.99113309 79.82550957 -50.49639356 80.90988375 -54 82 C-50.54459916 83.17497736 -48.28838436 82.80956325 -44.7890625 81.890625 C-43.79132813 81.63023438 -42.79359375 81.36984375 -41.765625 81.1015625 C-40.21101563 80.68003906 -40.21101563 80.68003906 -38.625 80.25 C-37.59632813 79.98445313 -36.56765625 79.71890625 -35.5078125 79.4453125 C-30.34777078 78.07550761 -25.64515231 76.64981197 -21 74 C-24.97362776 72.67545741 -26.86941001 73.64332038 -30.85546875 74.87109375 Z M-58 83 C-54 84 -54 84 -54 84 Z M-296 95 C-297.20479004 95.18723633 -298.40958008 95.37447266 -299.65087891 95.56738281 C-355.67305889 103.08882264 -355.67305889 103.08882264 -403 131 C-403.60457031 131.59683594 -404.20914062 132.19367188 -404.83203125 132.80859375 C-408.68404748 136.86680063 -411.46157596 141.33186324 -412 147 C-411.25564421 150.11013776 -409.84091031 152.40889213 -408 155 C-407.59523438 155.59683594 -407.19046875 156.19367188 -406.7734375 156.80859375 C-398.35078045 167.86640959 -383.64361488 172.95331346 -370.875 177.0625 C-370.15441406 177.29590088 -369.43382812 177.52930176 -368.69140625 177.76977539 C-352.50611729 182.79972432 -336.13868076 185.29192824 -319.375 187.5 C-315.11120133 188.06725313 -310.84825048 188.6404411 -306.5859375 189.21875 C-305.52583969 189.36164963 -304.46574188 189.50454926 -303.3735199 189.65177917 C-297.44725417 190.46741609 -291.56728745 191.41230074 -285.68659973 192.50749207 C-270.8147832 195.27354229 -255.85306986 196.65940841 -240.80194092 197.9977417 C-237.97340344 198.25158585 -235.14578157 198.51490545 -232.31811905 198.77828979 C-223.88232483 199.56349882 -215.44354258 200.30225398 -207 201 C-206.15804077 201.07105957 -205.31608154 201.14211914 -204.4486084 201.21533203 C-189.07211752 202.46437621 -173.58982727 202.15242297 -158.17431641 202.13037109 C-154.15119881 202.12462554 -150.12814725 202.12799702 -146.10503197 202.13394356 C-142.97363797 202.1375675 -139.8422595 202.136403 -136.71086502 202.13381577 C-135.22703671 202.13315411 -133.74320694 202.13394794 -132.25938034 202.13629532 C-125.10984337 202.14514409 -118.07501205 202.14671449 -111 201 C-118.71549033 187.56933165 -134.63144444 181.51791417 -148.8828125 177.62890625 C-170.61454034 172.0244188 -192.59142343 170.01120466 -214.96362305 169.49731445 C-217.56114154 169.43753127 -220.15848912 169.37252394 -222.75585938 169.30664062 C-234.28948054 169.02105262 -234.28948054 169.02105262 -245.82543945 169.125 C-249.61049525 168.9074241 -254.26001865 167.73998135 -257 165 C-257.5932601 158.78907945 -257.5932601 158.78907945 -255.40234375 155.875 C-243.55346067 146.86158656 -230.97373191 138.53436322 -218.05859375 131.12890625 C-209.84092993 126.88215462 -209.84092993 126.88215462 -204.75 119.625 C-204.46989786 118.08851736 -204.22227111 116.54590804 -204 115 C-202.04626728 107.94225739 -199.95864721 102.13960093 -195.171875 96.5234375 C-193.79676308 95.05612832 -193.79676308 95.05612832 -194 93 C-207.81812102 90.94963764 -221.48238876 90.60062032 -235.4375 90.625 C-237.11684128 90.62531723 -237.11684128 90.62531723 -238.83010864 90.62564087 C-258.18189781 90.66197143 -276.9004485 91.91772408 -296 95 Z M-189.0390625 104.0859375 C-191.32159699 107.47791106 -192.37727154 109.99674562 -193 114 C-192.236875 113.484375 -191.47375 112.96875 -190.6875 112.4375 C-176.42633859 102.95264205 -176.42633859 102.95264205 -170 100 C-170 99.34 -170 98.68 -170 98 C-180.21841412 94.79422302 -182.49204455 95.66834299 -189.0390625 104.0859375 Z M-210.41796875 137.74609375 C-211.33690918 138.33237549 -212.25584961 138.91865723 -213.20263672 139.52270508 C-214.1876416 140.1545874 -215.17264648 140.78646973 -216.1875 141.4375 C-217.18023926 142.07260498 -218.17297852 142.70770996 -219.19580078 143.36206055 C-221.19570391 144.64187532 -223.19505747 145.92254931 -225.19384766 147.20410156 C-227.64968266 148.77580178 -230.11021559 150.33958971 -232.57421875 151.8984375 C-233.84117006 152.70308686 -235.1080992 153.50777113 -236.375 154.3125 C-237.47585937 155.00988281 -238.57671875 155.70726562 -239.7109375 156.42578125 C-240.84402344 157.20501953 -240.84402344 157.20501953 -242 158 C-242 158.33 -242 158.66 -242 159 C-240.88044922 158.98259766 -240.88044922 158.98259766 -239.73828125 158.96484375 C-219.82151344 158.80587297 -199.87402092 159.74955959 -180 161 C-182.97211162 158.67521012 -186.05916116 156.78006687 -189.3125 154.875 C-197.12038603 149.9338278 -201.87565924 143.63788327 -205 135 C-206.98263406 135 -208.81586707 136.72124168 -210.41796875 137.74609375 Z M41 167 C40.52433594 168.22009766 40.52433594 168.22009766 40.0390625 169.46484375 C33.27964969 186.06461719 23.57249025 207.19581811 7.5 216.4375 C2.1961609 217.6308638 -1.45959871 217.79982375 -6.25 215.3125 C-8.91985068 213.06739829 -10.96167147 210.82230104 -13 208 C-16.86444746 209.4658249 -18.01174362 211.473551 -20 215 C-18.44539063 215.72316406 -18.44539063 215.72316406 -16.859375 216.4609375 C-15.48956968 217.09892902 -14.11977877 217.73695148 -12.75 218.375 C-11.72712891 218.85066406 -11.72712891 218.85066406 -10.68359375 219.3359375 C-10.01972656 219.6453125 -9.35585938 219.9546875 -8.671875 220.2734375 C-8.02798828 220.57088867 -7.38410156 220.86833984 -6.72070312 221.17480469 C-5.37278304 221.82122493 -4.06049211 222.54202378 -2.765625 223.2890625 C-0.41853951 224.2341279 0.61682057 223.78634495 3 223 C4.86784876 221.90913578 4.86784876 221.90913578 6.6953125 220.515625 C7.40228271 219.9990332 8.10925293 219.48244141 8.83764648 218.95019531 C9.59247314 218.38913086 10.3472998 217.82806641 11.125 217.25 C12.74326966 216.06220032 14.36176582 214.87470916 15.98046875 213.6875 C16.80981934 213.07648438 17.63916992 212.46546875 18.49365234 211.8359375 C20.91729272 210.06058433 23.35503358 208.30723719 25.80078125 206.5625 C34.10615829 200.63417317 42.22907001 194.62411874 50 188 C47.72564796 180.81783567 44.96415819 173.9241798 42 167 C41.67 167 41.34 167 41 167 Z M-67.328125 190.32421875 C-69.09637456 192.09659973 -70.02192971 193.70951905 -71 196 C-65.94595612 197.66266557 -61.90123645 195.81601818 -57 194.25 C-56.03553955 193.94360596 -55.0710791 193.63721191 -54.07739258 193.3215332 C-36.99050989 187.91186239 -36.99050989 187.91186239 -24 177 C-40.57827749 174.19012246 -54.413835 180.15300163 -67.328125 190.32421875 Z M-100 197 C-99.34 198.32 -98.68 199.64 -98 201 C-96.02 200.67 -94.04 200.34 -92 200 C-94.91765 198.0549 -96.62537285 197.54723683 -100 197 Z M50.78125 200.421875 C50.10441162 200.9470874 49.42757324 201.4722998 48.73022461 202.01342773 C47.99425049 202.58649658 47.25827637 203.15956543 46.5 203.75 C39.74764107 208.96665245 32.8908614 213.99137571 25.88671875 218.86425781 C23.91861314 220.23476442 21.95689028 221.61352755 20 223 C19.24992676 223.53125488 18.49985352 224.06250977 17.72705078 224.60986328 C16.99341309 225.14208496 16.25977539 225.67430664 15.50390625 226.22265625 C14.83302979 226.70613525 14.16215332 227.18961426 13.47094727 227.68774414 C12.98553467 228.12078857 12.50012207 228.55383301 12 229 C12 229.66 12 230.32 12 231 C40.48315084 245.81752142 40.48315084 245.81752142 69.375 259.8125 C70.52452148 260.35028076 71.67404297 260.88806152 72.85839844 261.44213867 C78.2183861 264.10347003 78.2183861 264.10347003 84 265 C81.62775038 257.06889681 78.23150593 249.67994027 74.76187134 242.18624878 C73.05826334 238.50543406 71.36954954 234.81783407 69.68359375 231.12890625 C69.35675095 230.41384415 69.02990814 229.69878204 68.69316101 228.96205139 C65.74683529 222.49101454 63.0016856 215.95468991 60.39453125 209.33984375 C58.77474522 205.46052426 56.9247789 201.73512458 55 198 C53.25166872 198 52.1189721 199.37574464 50.78125 200.421875 Z M-75 209 C-74.21247443 213.92203483 -73.20039061 216.25182072 -69.1875 219.3125 C-63.34821296 223.21928596 -59.61208131 224.41231797 -52.58203125 223.55859375 C-48.60899701 222.69907197 -45.51581249 221.0183368 -42 219 C-43.44428838 216.11142324 -45.24760192 215.95478825 -48.2421875 214.8359375 C-49.84126953 214.23652344 -49.84126953 214.23652344 -51.47265625 213.625 C-52.59542969 213.2125 -53.71820313 212.8 -54.875 212.375 C-55.99003906 211.95476562 -57.10507812 211.53453125 -58.25390625 211.1015625 C-64.51630408 208.77488152 -68.38102163 207.56886954 -75 209 Z M-320 226 C-320.88429688 226.23203125 -321.76859375 226.4640625 -322.6796875 226.703125 C-339.8824449 232.3091354 -348.51501288 250.12653273 -356.2019043 265.10229492 C-360.79005687 274.22399365 -363.06856579 282.74068734 -360.1640625 292.93359375 C-356.98351578 299.94573871 -352.2773118 304.26067819 -345.17578125 307.1484375 C-341.68538283 308.08436229 -338.73152008 308.19860245 -335.125 308.125 C-333.39636719 308.09792969 -333.39636719 308.09792969 -331.6328125 308.0703125 C-330.76398438 308.04710937 -329.89515625 308.02390625 -329 308 C-328.62875 306.88625 -328.2575 305.7725 -327.875 304.625 C-326.59222448 301.68780371 -326.08940028 301.05689109 -323.25 299.25 C-319.03590986 298.92583922 -317.50951964 300.25419839 -314.3203125 302.8359375 C-313.88460937 303.22007812 -313.44890625 303.60421875 -313 304 C-298.6254882 297.78789942 -285.7358938 288.16047268 -274.15234375 277.74609375 C-271.28470397 275.18133026 -268.21415508 273.01996992 -265.0625 270.8125 C-261.96475775 268.39711236 -261.96475775 268.39711236 -260.4375 264.93359375 C-260.58301253 262.39167168 -261.1478198 260.40125443 -262 258 C-262.32097656 257.05898438 -262.64195312 256.11796875 -262.97265625 255.1484375 C-267.9281688 242.14651643 -275.23544931 230.26185505 -288 224 C-298.17336404 220.70409372 -310.00935635 223.25558223 -320 226 Z M-266.30297852 284.75878906 C-277.1525519 294.38282441 -289.08439527 301.96086703 -301.48828125 309.40625 C-304.04746649 310.90199423 -304.04746649 310.90199423 -306 313 C-300.9597961 317.60776037 -296.56499606 321.40583399 -289.625 322.5625 C-282.48435032 321.45446815 -278.30937165 316.71968748 -274 311.1875 C-270.70164892 306.42611795 -268.06225531 301.46027209 -265.5625 296.25 C-265.22025391 295.54125732 -264.87800781 294.83251465 -264.52539062 294.10229492 C-262.49911558 289.69328962 -261.44927356 285.83443662 -261 281 C-263.19769184 281 -264.73154666 283.3612461 -266.30297852 284.75878906 Z M-368 301 C-374.71901265 335.51689579 -374.71901265 335.51689579 -367 369 C-365.96532839 370.21192765 -365.96532839 370.21192765 -363.8125 370.5 C-359.427061 369.7203664 -357.49013512 366.4483461 -355 363 C-352.86912017 359.43834138 -350.98893304 355.76953659 -349.125 352.0625 C-348.60832764 351.0513916 -348.09165527 350.0402832 -347.55932617 348.99853516 C-346.52039449 346.96135724 -345.485732 344.92199588 -344.45556641 342.88037109 C-343.14366779 340.28429934 -341.81591097 337.6972945 -340.48046875 335.11328125 C-339.75706677 333.70090254 -339.03435553 332.28816972 -338.3125 330.875 C-337.98588379 330.24343994 -337.65926758 329.61187988 -337.32275391 328.96118164 C-335.66182611 325.66238194 -334.51851248 322.66415483 -334 319 C-335.55847656 318.77957031 -335.55847656 318.77957031 -337.1484375 318.5546875 C-349.53903306 316.63288084 -358.1890232 313.23871283 -366 303 C-366.66 302.34 -367.32 301.68 -368 301 Z " transform="translate(429 7)" class="colorFDFDFD svgShape"></path></svg></g></svg>